<?xml version="1.0" encoding="UTF-8" standalone="no"?><!DOCTYPE svg PUBLIC "-//W3C//DTD SVG 1.1//EN" "http://www.w3.org/Graphics/SVG/1.1/DTD/svg11.dtd"><svg width="100%" height="100%" viewBox="0 0 600 600" version="1.1" xmlns="http://www.w3.org/2000/svg" xmlns:xlink="http://www.w3.org/1999/xlink" xml:space="preserve" xmlns:serif="http://www.serif.com/" style="fill-rule:evenodd;clip-rule:evenodd;stroke-linejoin:round;stroke-miterlimit:2;"><rect id="Artboard1" x="0" y="0" width="600" height="600" style="fill:none;"/><rect x="0" y="0" width="600" height="600" style="fill:#f5f5f5;"/><g id="AI---Technological" serif:id="AI &amp; Technological"><path d="M367.762,376.76c15.886,-16.794 25.613,-39.36 25.613,-64.26c0,-51.551 -41.824,-93.375 -93.375,-93.375c-51.551,-0 -93.375,41.824 -93.375,93.375c0,24.9 9.727,47.466 25.613,64.26c13.812,14.525 29.115,35.016 34.562,60.24l66.4,0c5.447,-25.289 20.75,-45.715 34.562,-60.24Zm22.565,21.399c-15.303,16.146 -28.077,35.858 -28.077,58.1l-0,11.866c-0,28.661 -23.214,51.875 -51.875,51.875l-20.75,0c-28.661,0 -51.875,-23.214 -51.875,-51.875l-0,-11.866c-0,-22.242 -12.774,-41.954 -28.077,-58.1c-21.204,-22.307 -34.173,-52.459 -34.173,-85.659c-0,-68.734 55.766,-124.5 124.5,-124.5c68.734,-0 124.5,55.766 124.5,124.5c-0,33.2 -12.969,63.352 -34.173,85.659Z" style="fill:#d14d0d;fill-rule:nonzero;"/><path d="M306.59,273.148c5.168,-2.461 8.75,-7.738 8.75,-13.836c-0,-8.449 -6.863,-15.312 -15.313,-15.312c-8.449,-0 -15.312,6.863 -15.312,15.313c-0,6.097 3.582,11.375 8.75,13.835l-0,27.016c-0.766,0.356 -1.504,0.793 -2.188,1.285l-21.902,-12.523c0.437,-5.688 -2.352,-11.375 -7.629,-14.438c-7.328,-4.238 -16.68,-1.722 -20.918,5.606c-4.238,7.328 -1.723,16.679 5.606,20.918c0.355,0.218 0.711,0.41 1.093,0.574l0,24.828c-0.355,0.164 -0.738,0.356 -1.093,0.574c-7.329,4.239 -9.844,13.59 -5.606,20.918c4.238,7.328 13.59,9.844 20.918,5.606c5.277,-3.035 8.039,-8.75 7.602,-14.438l13.808,-7.902c-3.144,-3.063 -5.441,-7 -6.508,-11.402l-13.808,7.929c-0.711,-0.492 -1.422,-0.902 -2.188,-1.285l0,-24.828c0.766,-0.356 1.504,-0.793 2.188,-1.285l21.902,12.523c-0.027,0.383 -0.055,0.766 -0.055,1.176c0,6.098 3.583,11.375 8.75,13.836l0,27.016c-5.167,2.46 -8.75,7.738 -8.75,13.835c0,8.45 6.864,15.313 15.313,15.313c8.449,0 15.313,-6.863 15.313,-15.313c-0,-6.097 -3.583,-11.375 -8.75,-13.835l-0,-27.016c0.765,-0.356 1.503,-0.793 2.187,-1.285l21.902,12.523c-0.437,5.688 2.352,11.375 7.602,14.438c7.328,4.238 16.68,1.722 20.918,-5.606c4.238,-7.328 1.723,-16.679 -5.606,-20.918c-0.355,-0.218 -0.738,-0.41 -1.093,-0.574l-0,-24.828c0.382,-0.164 0.738,-0.356 1.093,-0.574c7.329,-4.239 9.844,-13.59 5.606,-20.918c-4.238,-7.328 -13.535,-9.844 -20.863,-5.606c-5.278,3.035 -8.039,8.75 -7.602,14.438l-13.836,7.902c3.145,3.063 5.442,7 6.508,11.402l13.836,-7.929c0.711,0.492 1.422,0.902 2.187,1.285l0,24.828c-0.765,0.356 -1.504,0.793 -2.187,1.258l-21.902,-12.524c0.027,-0.382 0.054,-0.765 0.054,-1.175c0,-6.098 -3.582,-11.375 -8.75,-13.836l0,-27.016l-0.027,0.027Z" style="fill:#f4793c;fill-rule:nonzero;"/><path d="M285,107c0,-8.279 6.721,-15 15,-15c8.279,0 15,6.721 15,15l0,45c0,8.279 -6.721,15 -15,15c-8.279,0 -15,-6.721 -15,-15l0,-45Z" style="fill:#f4793c;"/><path d="M139,285c8.279,0 15,6.721 15,15c-0,8.279 -6.721,15 -15,15l-45,0c-8.279,0 -15,-6.721 -15,-15c-0,-8.279 6.721,-15 15,-15l45,0Z" style="fill:#f4793c;"/><path d="M505,285c8.279,0 15,6.721 15,15c-0,8.279 -6.721,15 -15,15l-45,0c-8.279,0 -15,-6.721 -15,-15c-0,-8.279 6.721,-15 15,-15l45,0Z" style="fill:#f4793c;"/><path d="M436.71,154.577c5.854,-5.854 15.36,-5.854 21.213,-0c5.854,5.853 5.854,15.359 0,21.213l-31.819,31.82c-5.854,5.853 -15.36,5.853 -21.214,-0c-5.853,-5.854 -5.853,-15.36 0,-21.214l31.82,-31.819Z" style="fill:#f4793c;"/><path d="M143.39,175.79c-5.853,-5.854 -5.853,-15.36 0,-21.213c5.854,-5.854 15.36,-5.854 21.214,-0l31.819,31.819c5.854,5.854 5.854,15.36 0,21.214c-5.853,5.853 -15.359,5.853 -21.213,-0l-31.82,-31.82Z" style="fill:#f4793c;"/></g></svg>