<?xml version="1.0" encoding="UTF-8" standalone="no"?><!DOCTYPE svg PUBLIC "-//W3C//DTD SVG 1.1//EN" "http://www.w3.org/Graphics/SVG/1.1/DTD/svg11.dtd"><svg width="100%" height="100%" viewBox="0 0 600 600" version="1.1" xmlns="http://www.w3.org/2000/svg" xmlns:xlink="http://www.w3.org/1999/xlink" xml:space="preserve" xmlns:serif="http://www.serif.com/" style="fill-rule:evenodd;clip-rule:evenodd;stroke-linejoin:round;stroke-miterlimit:2;"><rect id="Artboard1" x="0" y="0" width="600" height="600" style="fill:none;"/><rect x="0" y="0" width="600" height="600" style="fill:#f5f5f5;"/><g id="Analytical-Frameworks" serif:id="Analytical Frameworks"><path d="M464.875,148.406l0,220.5l-330.75,0l-0,-220.5l330.75,0Zm-330.75,-55.125c-30.405,0 -55.125,24.72 -55.125,55.125l-0,220.5c-0,30.405 24.72,55.125 55.125,55.125l124.031,0l-13.781,41.344l-62.016,0c-11.455,0 -20.672,9.216 -20.672,20.672c0,11.456 9.217,20.672 20.672,20.672l234.282,-0c11.455,-0 20.671,-9.216 20.671,-20.672c0,-11.456 -9.216,-20.672 -20.671,-20.672l-62.016,0l-13.781,-41.344l124.031,0c30.405,0 55.125,-24.72 55.125,-55.125l0,-220.5c0,-30.405 -24.72,-55.125 -55.125,-55.125l-330.75,0Z" style="fill:#f4793c;fill-rule:nonzero;"/><path d="M277.786,199.286c-0,-8.991 7.294,-16.286 16.285,-16.286l10.858,0c8.991,0 16.285,7.295 16.285,16.286l0,119.428c0,8.991 -7.294,16.286 -16.285,16.286l-10.858,0c-8.991,0 -16.285,-7.295 -16.285,-16.286l-0,-119.428Zm-65.143,65.143c-0,-8.991 7.294,-16.286 16.286,-16.286l10.857,-0c8.991,-0 16.285,7.295 16.285,16.286l0,54.285c0,8.991 -7.294,16.286 -16.285,16.286l-10.857,0c-8.992,0 -16.286,-7.295 -16.286,-16.286l-0,-54.285Zm146.571,-59.715l10.857,0c8.991,0 16.286,7.295 16.286,16.286l0,97.714c0,8.991 -7.295,16.286 -16.286,16.286l-10.857,0c-8.991,0 -16.285,-7.295 -16.285,-16.286l-0,-97.714c-0,-8.991 7.294,-16.286 16.285,-16.286Z" style="fill:#d14d0d;fill-rule:nonzero;"/></g></svg>