<?xml version="1.0" encoding="UTF-8" standalone="no"?><!DOCTYPE svg PUBLIC "-//W3C//DTD SVG 1.1//EN" "http://www.w3.org/Graphics/SVG/1.1/DTD/svg11.dtd"><svg width="100%" height="100%" viewBox="0 0 600 600" version="1.1" xmlns="http://www.w3.org/2000/svg" xmlns:xlink="http://www.w3.org/1999/xlink" xml:space="preserve" xmlns:serif="http://www.serif.com/" style="fill-rule:evenodd;clip-rule:evenodd;stroke-linejoin:round;stroke-miterlimit:2;"><rect id="Artboard1" x="0" y="0" width="600" height="600" style="fill:none;"/><rect x="0" y="0" width="600" height="600" style="fill:#f5f5f5;"/><g id="Community-Centred" serif:id="Community Centred"><path d="M382.5,348.125c0,21.484 -10.914,40.391 -27.5,51.477l0,79.148c0,22.773 -18.477,41.25 -41.25,41.25l-27.5,0c-22.773,0 -41.25,-18.477 -41.25,-41.25l0,-79.148c-16.586,-11.086 -27.5,-29.993 -27.5,-51.477l0,-34.375c0,-45.547 36.953,-82.5 82.5,-82.5c45.547,0 82.5,36.953 82.5,82.5l0,34.375Zm-206.25,-34.375l0,27.5c0,27.93 10.398,53.367 27.5,72.789l0,64.711c0,1.031 0,2.148 0.086,3.18c-7.305,6.531 -16.93,10.57 -27.586,10.57l-27.5,0c-22.773,0 -41.25,-18.477 -41.25,-41.25l0,-48.641c-16.414,-9.453 -27.5,-27.242 -27.5,-47.609l0,-27.5c0,-45.547 36.953,-82.5 82.5,-82.5c10.914,0 21.313,2.148 30.852,5.93c-10.829,18.39 -17.102,39.875 -17.102,62.82Zm220,165l0,-64.711c17.102,-19.336 27.5,-44.859 27.5,-72.789l0,-27.5c0,-22.945 -6.273,-44.344 -17.102,-62.82c9.54,-3.868 19.938,-5.93 30.852,-5.93c45.547,0 82.5,36.953 82.5,82.5l0,27.5c0,20.367 -11.086,38.156 -27.5,47.609l0,48.641c0,22.773 -18.477,41.25 -41.25,41.25l-27.5,0c-10.57,0 -20.281,-3.953 -27.586,-10.57c0,-1.032 0.086,-2.149 0.086,-3.18Z" style="fill:#d14d0d;fill-rule:nonzero;"/><path d="M300,80c30.336,0 55,24.664 55,55c0,30.336 -24.664,55 -55,55c-30.336,0 -55,-24.664 -55,-55c0,-30.336 24.664,-55 55,-55Zm-137.5,27.5c26.555,0 48.125,21.57 48.125,48.125c0,26.555 -21.57,48.125 -48.125,48.125c-26.555,0 -48.125,-21.57 -48.125,-48.125c0,-26.555 21.57,-48.125 48.125,-48.125Zm275,0c26.555,0 48.125,21.57 48.125,48.125c0,26.555 -21.57,48.125 -48.125,48.125c-26.555,0 -48.125,-21.57 -48.125,-48.125c0,-26.555 21.57,-48.125 48.125,-48.125Z" style="fill:#f4793c;fill-rule:nonzero;"/></g></svg>