<?xml version="1.0" encoding="UTF-8" standalone="no"?><!DOCTYPE svg PUBLIC "-//W3C//DTD SVG 1.1//EN" "http://www.w3.org/Graphics/SVG/1.1/DTD/svg11.dtd"><svg width="100%" height="100%" viewBox="0 0 600 600" version="1.1" xmlns="http://www.w3.org/2000/svg" xmlns:xlink="http://www.w3.org/1999/xlink" xml:space="preserve" xmlns:serif="http://www.serif.com/" style="fill-rule:evenodd;clip-rule:evenodd;stroke-linejoin:round;stroke-miterlimit:2;"><rect id="Artboard1" x="0" y="0" width="600" height="600" style="fill:none;"/><rect x="0" y="0" width="600" height="600" style="fill:#f5f5f5;"/><g id="Data-Preparedness" serif:id="Data Preparedness"><path d="M162.669,389.482l-32.61,32.534l-26.563,-0c-13.549,-0 -24.496,10.947 -24.496,24.496l-0,48.992c-0,13.549 10.947,24.496 24.496,24.496l245.343,0c22.199,0 43.863,-7.119 61.776,-20.286l96.912,-71.421c13.626,-10.028 16.535,-29.166 6.507,-42.791c-10.028,-13.626 -29.166,-16.535 -42.792,-6.507l-91.707,67.517l-86.195,-0c-10.181,-0 -18.372,-8.191 -18.372,-18.372c0,-10.181 8.191,-18.372 18.372,-18.372l55.116,-0c13.55,-0 24.496,-10.947 24.496,-24.496c0,-13.549 -10.946,-24.496 -24.496,-24.496l-116.509,-0c-25.95,-0 -50.906,10.334 -69.278,28.706Z" style="fill:#f4793c;fill-rule:nonzero;"/><path d="M407.188,178.479c-7.083,4.689 -15.217,8.469 -23.687,11.484c-22.49,8.039 -52.015,12.537 -83.501,12.537c-31.486,-0 -61.059,-4.546 -83.501,-12.537c-8.422,-3.015 -16.604,-6.795 -23.686,-11.484l-0,39.333c-0,21.151 47.995,38.282 107.187,38.282c59.192,-0 107.188,-17.131 107.188,-38.281l-0,-39.334Zm-0,-37.229l-0,-22.969c-0,-21.15 -47.996,-38.281 -107.188,-38.281c-59.192,0 -107.188,17.131 -107.188,38.281l0,22.969c0,21.15 47.996,38.281 107.188,38.281c59.192,0 107.188,-17.131 107.188,-38.281Zm-23.687,125.275c-22.442,7.992 -51.967,12.538 -83.501,12.538c-31.534,-0 -61.059,-4.546 -83.501,-12.538c-8.422,-3.014 -16.604,-6.795 -23.686,-11.484l-0,31.678c-0,21.15 47.995,38.281 107.187,38.281c59.192,0 107.188,-17.131 107.188,-38.281l-0,-31.678c-7.083,4.689 -15.217,8.47 -23.687,11.484Z" style="fill:#d14d0d;fill-rule:nonzero;"/></g></svg>