<?xml version="1.0" encoding="UTF-8" standalone="no"?><!DOCTYPE svg PUBLIC "-//W3C//DTD SVG 1.1//EN" "http://www.w3.org/Graphics/SVG/1.1/DTD/svg11.dtd"><svg width="100%" height="100%" viewBox="0 0 600 600" version="1.1" xmlns="http://www.w3.org/2000/svg" xmlns:xlink="http://www.w3.org/1999/xlink" xml:space="preserve" xmlns:serif="http://www.serif.com/" style="fill-rule:evenodd;clip-rule:evenodd;stroke-linejoin:round;stroke-miterlimit:2;"><rect id="Artboard1" x="0" y="0" width="600" height="600" style="fill:none;"/><rect x="0" y="0" width="600" height="600" style="fill:#f5f5f5;"/><g id="Evidence-to-Policy" serif:id="Evidence to Policy"><path d="M286.25,121.25l-96.25,0c-7.562,0 -13.75,6.188 -13.75,13.75l0,330c0,7.562 6.188,13.75 13.75,13.75l220,0c7.563,0 13.75,-6.188 13.75,-13.75l0,-206.25l-75.625,0c-34.203,0 -61.875,-27.672 -61.875,-61.875l0,-75.625Zm120.398,96.25l-79.148,-79.148l0,58.523c0,11.43 9.195,20.625 20.625,20.625l58.523,0Zm-271.648,-82.5c0,-30.336 24.664,-55 55,-55l114.727,0c14.609,0 28.617,5.758 38.929,16.07l105.274,105.36c10.312,10.312 16.07,24.32 16.07,38.929l0,224.641c0,30.336 -24.664,55 -55,55l-220,0c-30.336,0 -55,-24.664 -55,-55l0,-330Z" style="fill:#d14d0d;fill-rule:nonzero;"/><path d="M252.173,284.703c4.267,2.975 5.285,8.847 2.31,13.075l-21.922,31.317c-1.605,2.271 -4.111,3.719 -6.89,3.954c-2.779,0.235 -5.52,-0.705 -7.477,-2.662l-15.658,-15.659c-3.641,-3.679 -3.641,-9.63 -0,-13.309c3.64,-3.68 9.63,-3.641 13.309,-0l7.751,7.751l15.502,-22.157c2.975,-4.267 8.847,-5.285 13.075,-2.31Zm0,62.634c4.267,2.975 5.285,8.847 2.31,13.075l-21.922,31.317c-1.605,2.271 -4.111,3.719 -6.89,3.954c-2.779,0.235 -5.52,-0.705 -7.477,-2.662l-15.658,-15.659c-3.68,-3.679 -3.68,-9.63 -0,-13.27c3.679,-3.641 9.63,-3.68 13.27,-0l7.751,7.751l15.502,-22.157c2.975,-4.267 8.847,-5.285 13.075,-2.31l0.039,-0.039Zm35.31,-39.264c-0,-6.928 5.598,-12.526 12.527,-12.526l87.687,-0c6.929,-0 12.527,5.598 12.527,12.526c0,6.929 -5.598,12.527 -12.527,12.527l-87.687,0c-6.929,0 -12.527,-5.598 -12.527,-12.527Zm-0,62.634c-0,-6.928 5.598,-12.526 12.527,-12.526l87.687,-0c6.929,-0 12.527,5.598 12.527,12.526c0,6.929 -5.598,12.527 -12.527,12.527l-87.687,0c-6.929,0 -12.527,-5.598 -12.527,-12.527Zm-25.054,62.634c0,-6.928 5.598,-12.526 12.527,-12.526l112.741,-0c6.929,-0 12.527,5.598 12.527,12.526c0,6.929 -5.598,12.527 -12.527,12.527l-112.741,0c-6.929,0 -12.527,-5.598 -12.527,-12.527Zm-37.58,-15.658c8.651,-0 15.658,7.007 15.658,15.658c0,8.652 -7.007,15.659 -15.658,15.659c-8.651,-0 -15.659,-7.007 -15.659,-15.659c0,-8.651 7.008,-15.658 15.659,-15.658Z" style="fill:#f4793c;fill-rule:nonzero;"/></g></svg>