<?xml version="1.0" encoding="UTF-8" standalone="no"?><!DOCTYPE svg PUBLIC "-//W3C//DTD SVG 1.1//EN" "http://www.w3.org/Graphics/SVG/1.1/DTD/svg11.dtd"><svg width="100%" height="100%" viewBox="0 0 600 600" version="1.1" xmlns="http://www.w3.org/2000/svg" xmlns:xlink="http://www.w3.org/1999/xlink" xml:space="preserve" xmlns:serif="http://www.serif.com/" style="fill-rule:evenodd;clip-rule:evenodd;stroke-linejoin:round;stroke-miterlimit:2;"><rect id="Artboard1" x="0" y="0" width="600" height="600" style="fill:none;"/><rect x="0" y="0" width="600" height="600" style="fill:#f5f5f5;"/><g id="Governance"><path d="M366,520l-176,-0c-30.336,-0 -55,-24.664 -55,-55l0,-330c0,-30.336 24.664,-55 55,-55l114.727,0c14.609,0 28.617,5.758 38.929,16.07l105.274,105.36c10.312,10.312 16.07,24.32 16.07,38.929l0,180.641l-41.25,-0l0,-162.25l-75.625,-0c-34.203,-0 -61.875,-27.672 -61.875,-61.875l0,-75.625l-96.25,0c-7.562,0 -13.75,6.188 -13.75,13.75l0,330c0,7.562 6.188,13.75 13.75,13.75l176,-0l0,41.25Zm40.648,-302.5l-79.148,-79.148l-0,58.523c-0,11.43 9.195,20.625 20.625,20.625l58.523,-0Z" style="fill:#d14d0d;"/><path d="M299.966,279.975c1.581,-0 3.161,0.343 4.605,0.996l64.749,27.46c7.56,3.196 13.197,10.654 13.162,19.659c-0.172,34.092 -14.194,96.469 -73.409,124.823c-5.739,2.749 -12.407,2.749 -18.146,-0c-59.25,-28.354 -73.237,-90.731 -73.409,-124.823c-0.035,-9.005 5.602,-16.463 13.162,-19.659l64.715,-27.46c1.443,-0.653 2.99,-0.996 4.571,-0.996Zm-0,22.957l-0,129.944c47.427,-22.957 60.177,-73.821 60.487,-104.271l-60.487,-25.638l-0,-0.035Z" style="fill:#f4793c;fill-rule:nonzero;"/><path d="M488.921,458.578c3.927,-4.927 3.142,-12.103 -1.785,-16.066c-4.926,-3.962 -12.102,-3.141 -16.065,1.785l-37.736,47.161l-13.816,-13.816c-4.462,-4.463 -11.709,-4.463 -16.172,-0c-4.463,4.462 -4.463,11.71 -0,16.172l22.848,22.849c2.285,2.284 5.463,3.498 8.711,3.32c3.249,-0.179 6.248,-1.75 8.283,-4.284l45.732,-57.121Z" style="fill:#d14d0d;fill-rule:nonzero;"/></g></svg>