<?xml version="1.0" encoding="UTF-8" standalone="no"?><!DOCTYPE svg PUBLIC "-//W3C//DTD SVG 1.1//EN" "http://www.w3.org/Graphics/SVG/1.1/DTD/svg11.dtd"><svg width="100%" height="100%" viewBox="0 0 600 600" version="1.1" xmlns="http://www.w3.org/2000/svg" xmlns:xlink="http://www.w3.org/1999/xlink" xml:space="preserve" xmlns:serif="http://www.serif.com/" style="fill-rule:evenodd;clip-rule:evenodd;stroke-linejoin:round;stroke-miterlimit:2;"><rect id="Artboard1" x="0" y="0" width="600" height="600" style="fill:none;"/><rect x="0" y="0" width="600" height="600" style="fill:#f5f5f5;"/><g id="Multisectoral-Approaches" serif:id="Multisectoral Approaches"><path d="M288.619,284.699l-69.476,77.222c-2.741,3.039 -2.621,7.746 0.298,10.666c18.174,18.173 47.668,18.173 65.842,-0l18.948,-18.948c2.502,-2.503 5.66,-3.873 8.878,-4.111c4.051,-0.358 8.222,1.013 11.321,4.111l105.227,104.333l41.948,-33.367l-0,-171.605l-66.736,38.134l-14.181,-9.474c-9.414,-6.256 -20.437,-9.593 -31.759,-9.593l-41.947,0c-0.656,0 -1.371,0 -2.026,0.06c-10.07,0.536 -19.544,5.064 -26.337,12.572Zm-90.748,58.095l63.637,-70.727l-23.595,0c-15.195,0 -29.733,6.018 -40.459,16.744l-2.323,2.323l-66.736,-38.134l0,171.605l93.191,77.639c13.705,11.44 30.984,17.696 48.8,17.696l9.355,0l-4.171,-4.171c-5.601,-5.601 -5.601,-14.657 0,-20.199c5.601,-5.541 14.658,-5.601 20.199,0l24.43,24.43l5.363,0c11.381,0 22.523,-2.562 32.652,-7.329l-15.909,-15.969c-5.601,-5.601 -5.601,-14.658 0,-20.199c5.601,-5.541 14.658,-5.601 20.2,0l19.067,19.067l10.427,-10.427c5.303,-5.303 6.852,-12.99 4.529,-19.723l-82.168,-81.512l-8.878,8.878c-29.376,29.376 -76.924,29.376 -106.3,0c-13.704,-13.704 -14.24,-35.691 -1.311,-50.051l0,0.059Z" style="fill:#d14d0d;fill-rule:nonzero;"/><path d="M193.178,261.483l0,-74.644l-17.806,-0c-8.069,-0 -15.191,-5.454 -17.25,-13.244c-2.059,-7.79 1.391,-16.026 8.402,-20.032l124.645,-71.226c5.509,-3.116 12.242,-3.116 17.696,0l-0.056,0l124.645,71.226c7.011,4.006 10.461,12.242 8.403,20.032c-2.059,7.79 -9.126,13.244 -17.195,13.244l-17.806,-0l-0,75.518l-1.001,0.572l-1.835,-1.225l-0.048,-0.032c-7.354,-4.887 -15.399,-8.518 -23.826,-10.793l0,-64.04l-35.613,-0l0,61.228l-26.71,0l0,-61.228l-35.612,-0l-0,71.882c-0.175,0.117 -0.349,0.236 -0.522,0.355c-4.37,-6.792 -11.94,-11.009 -20.181,-11.009l-6.007,0l-0,-61.228l-35.613,-0l-0,63.248c-9.515,2.162 -18.564,6.021 -26.71,11.396Zm106.839,-136.967c-9.849,0 -17.806,7.957 -17.806,17.807c-0,9.849 7.957,17.806 17.806,17.806c9.849,0 17.806,-7.957 17.806,-17.806c0,-9.85 -7.957,-17.807 -17.806,-17.807Z" style="fill:#f4793c;"/></g></svg>