<?xml version="1.0" encoding="UTF-8" standalone="no"?><!DOCTYPE svg PUBLIC "-//W3C//DTD SVG 1.1//EN" "http://www.w3.org/Graphics/SVG/1.1/DTD/svg11.dtd"><svg width="100%" height="100%" viewBox="0 0 600 600" version="1.1" xmlns="http://www.w3.org/2000/svg" xmlns:xlink="http://www.w3.org/1999/xlink" xml:space="preserve" xmlns:serif="http://www.serif.com/" style="fill-rule:evenodd;clip-rule:evenodd;stroke-linejoin:round;stroke-miterlimit:2;"><rect id="Artboard1" x="0" y="0" width="600" height="600" style="fill:none;"/><rect x="0" y="0" width="600" height="600" style="fill:#f5f5f5;"/><g id="Quality-Standards" serif:id="Quality Standards"><path d="M162.669,389.482l-32.61,32.534l-26.563,-0c-13.549,-0 -24.496,10.947 -24.496,24.496l-0,48.992c-0,13.549 10.947,24.496 24.496,24.496l245.343,0c22.199,0 43.863,-7.119 61.776,-20.286l96.912,-71.421c13.626,-10.028 16.535,-29.166 6.507,-42.791c-10.028,-13.626 -29.166,-16.535 -42.792,-6.507l-91.707,67.517l-86.195,-0c-10.181,-0 -18.372,-8.191 -18.372,-18.372c0,-10.181 8.191,-18.372 18.372,-18.372l55.116,-0c13.55,-0 24.496,-10.947 24.496,-24.496c0,-13.549 -10.946,-24.496 -24.496,-24.496l-116.509,-0c-25.95,-0 -50.906,10.334 -69.278,28.706Z" style="fill:#f4793c;fill-rule:nonzero;"/><path d="M308.954,82.649c-5.771,-3.532 -13.05,-3.532 -18.822,-0c-10.509,6.417 -17.013,8.14 -29.331,7.882c-6.762,-0.172 -13.051,3.489 -16.324,9.432c-5.901,10.811 -10.682,15.592 -21.493,21.493c-5.943,3.23 -9.561,9.562 -9.432,16.324c0.301,12.318 -1.465,18.822 -7.882,29.331c-3.532,5.772 -3.532,13.051 -0,18.822c6.417,10.509 8.14,17.013 7.882,29.331c-0.172,6.763 3.489,13.051 9.432,16.324c9.519,5.212 14.343,9.519 19.425,17.875l-20.975,41.822c-2.541,5.125 -0.474,11.327 4.608,13.869l37.041,18.52c4.954,2.455 10.984,0.603 13.654,-4.221l22.741,-40.96l22.742,40.96c2.67,4.824 8.7,6.719 13.653,4.221l37.042,-18.52c5.125,-2.542 7.192,-8.744 4.608,-13.869l-20.932,-41.865c5.039,-8.356 9.906,-12.663 19.425,-17.875c5.943,-3.23 9.561,-9.561 9.432,-16.324c-0.301,-12.318 1.465,-18.822 7.882,-29.331c3.532,-5.771 3.532,-13.05 0,-18.822c-6.417,-10.509 -8.14,-17.013 -7.882,-29.331c0.172,-6.762 -3.489,-13.051 -9.432,-16.324c-10.811,-5.901 -15.592,-10.682 -21.493,-21.493c-3.23,-5.943 -9.562,-9.561 -16.324,-9.432c-12.318,0.301 -18.822,-1.465 -29.331,-7.882l0.086,0.043Zm-9.432,52.503c22.827,0 41.348,18.521 41.348,41.349c-0,22.827 -18.521,41.348 -41.348,41.348c-22.828,-0 -41.349,-18.521 -41.349,-41.348c0,-22.828 18.521,-41.349 41.349,-41.349Z" style="fill:#d14d0d;fill-rule:nonzero;"/></g></svg>