<svg xmlns="http://www.w3.org/2000/svg" xml:space="preserve" style="fill-rule:evenodd;clip-rule:evenodd;stroke-miterlimit:1.5" viewBox="0 0 800 800"><path d="M0 0h800v800H0z" style="fill:none"/><clipPath id="a"><path d="M0 0h800v800H0z"/></clipPath><g clip-path="url(#a)"><path d="M0 0h800v800H0z" style="fill:#f5f5f5"/><path d="M300.003 187.209c0-30.9-25.1-56-56-56s-56 25.1-56 56 25.1 56 56 56 56-25.1 56-56m24 212.7 46.3 62.4c10.5 14.2 30.6 17.2 44.8 6.6s17.2-30.6 6.6-44.8l-70.5-95c-25.2-33.9-64.9-53.9-107.2-53.9s-82 20-107.2 53.9l-70.5 95c-10.5 14.2-7.6 34.2 6.6 44.8s34.2 7.6 44.8-6.6l46.3-62.4v275.3c0 17.7 14.3 32 32 32s32-14.3 32-32v-160c0-8.8 7.2-16 16-16s16 7.2 16 16v160c0 17.7 14.3 32 32 32s32-14.3 32-32z" style="fill:#202157;fill-rule:nonzero"/><path d="M675.233 106.195H740v220.208h-64.767z" style="fill:#afd46b"/><path d="M675.233 79.209H740v26.986h-64.767z" style="fill:#7eaa31"/><path d="M591.576 203.346h64.767v123.057h-64.767z" style="fill:#f5793b"/><path d="M591.576 176.36h64.767v26.986h-64.767z" style="fill:#d14d0c"/><path d="M507.378 268.113h64.767v58.29h-64.767z" style="fill:#a8a9ad"/><path d="M507.378 241.127h64.767v26.986h-64.767z" style="fill:#72757a"/><circle cx="654.867" cy="629.183" r="85.133" style="fill:#7acbcc"/><clipPath id="b"><circle cx="654.867" cy="629.183" r="85.133"/></clipPath><g clip-path="url(#b)"><path d="m722.995 558.315-95.437 165.302-40.818-23.566 95.437-165.302z" style="fill:#3fa3a1"/></g><path d="m590.988 585.902-63.927 110.725c-13.336 23.099-42.916 31.025-66.014 17.689s-31.024-42.916-17.688-66.014l63.927-110.726c13.336-23.098 42.916-31.024 66.014-17.688s31.024 42.916 17.688 66.014" style="fill:#202157"/><clipPath id="c"><path d="m590.988 585.902-63.927 110.725c-13.336 23.099-42.916 31.025-66.014 17.689s-31.024-42.916-17.688-66.014l63.927-110.726c13.336-23.098 42.916-31.024 66.014-17.688s31.024 42.916 17.688 66.014"/></clipPath><g clip-path="url(#c)"><path d="m656.343 515.717-77.409 134.076-134.075-77.409 77.408-134.075z" style="fill:#3b3da1"/></g><path d="M507.378 344.276H740v25.852H507.378z" style="fill:#202157"/><circle cx="244.025" cy="379.782" r="39.427" style="fill:#a8a9ad"/><circle cx="532.718" cy="118.636" r="39.427" style="fill:#a8a9ad"/><path d="M244.025 379.782 400 571.698h56.392M342.673 261.416l116.04-142.78h56.392" style="fill:none;stroke:#a8a9ad;stroke-width:24px"/></g></svg>