<svg xmlns="http://www.w3.org/2000/svg" xml:space="preserve" style="fill-rule:evenodd;clip-rule:evenodd;stroke-linecap:round;stroke-linejoin:round;stroke-miterlimit:1.5" viewBox="0 0 800 800"><path d="M0 0h800v800H0z" style="fill:none"/><clipPath id="a"><path d="M0 0h800v800H0z"/></clipPath><g clip-path="url(#a)"><path d="M0 0h800v800H0z" style="fill:#f5f5f5"/><path d="m133.775 603.772 81.547-229.126m0 0 163.797 96.525m0 0 203.559-264.64" style="fill:none;stroke:#3b3da1;stroke-width:36px"/><path d="M353.117 417.098c29.844-14.351 65.724-1.773 80.075 28.071s1.773 65.724-28.071 80.075-65.724 1.773-80.075-28.071-1.773-65.724 28.071-80.075M107.773 549.699c29.844-14.351 65.724-1.772 80.075 28.072s1.772 65.724-28.071 80.074c-29.844 14.351-65.725 1.773-80.075-28.071s-1.773-65.724 28.071-80.075m81.547-229.127c29.844-14.35 65.724-1.772 80.075 28.072s1.772 65.724-28.071 80.075c-29.844 14.351-65.725 1.772-80.075-28.072s-1.773-65.724 28.071-80.075M520.474 77.171c71.396-34.331 157.232-4.24 191.564 67.156 34.331 71.395 4.24 157.232-67.156 191.563-71.395 34.332-157.232 4.24-191.563-67.155-34.331-71.396-4.24-157.232 67.155-191.564" style="fill:#202157"/><path d="M245.819 111.52H73.769" style="fill:none;stroke:#f5793b;stroke-width:36px"/><path d="M206.479 182.122H73.769" style="fill:none;stroke:#d14d0c;stroke-width:36px"/><path d="M573.771 120.427a8.886 8.886 0 0 1 8.907-8.907 8.886 8.886 0 0 1 8.908 8.907v14.846h20.783a11.864 11.864 0 0 1 11.877 11.876 11.864 11.864 0 0 1-11.877 11.876h-42.643c-9.242 0-16.739 7.497-16.739 16.739 0 8.35 6.124 15.402 14.363 16.589l33.997 4.862c19.967 2.858 34.775 19.93 34.775 40.083 0 22.38-18.149 40.491-40.491 40.491h-4.045v14.846a8.886 8.886 0 0 1-8.908 8.907 8.886 8.886 0 0 1-8.907-8.907v-14.846h-26.722a11.863 11.863 0 0 1-11.876-11.876 11.864 11.864 0 0 1 11.876-11.877h48.582c9.241 0 16.738-7.497 16.738-16.738 0-8.35-6.123-15.402-14.363-16.59l-33.996-4.862c-19.967-2.82-34.775-19.93-34.775-40.082 0-22.343 18.148-40.491 40.491-40.491h4.045z" style="fill:#afd46b;fill-rule:nonzero"/><path d="m708.752 737.022-146-170" style="fill:none;stroke:#3fa3a1;stroke-width:36px"/><circle cx="587.502" cy="591.772" r="121.25" style="fill:#7acbcc"/><path d="M680.557 619.896c-5.21-19.295-18.118-46.022-37.53-70.767-19.413-24.746-42.297-43.647-59.797-53.301 20.482-16.067 58.915-1.315 85.773 32.923s32.035 75.078 11.554 91.145" style="fill:#fff;fill-opacity:.5"/></g></svg>