<?xml version="1.0" encoding="UTF-8" standalone="no"?>
<!DOCTYPE svg PUBLIC "-//W3C//DTD SVG 1.1//EN" "http://www.w3.org/Graphics/SVG/1.1/DTD/svg11.dtd">
<svg width="100%" height="100%" viewBox="0 0 67 63" version="1.1" xmlns="http://www.w3.org/2000/svg" xmlns:xlink="http://www.w3.org/1999/xlink" xml:space="preserve" xmlns:serif="http://www.serif.com/" style="fill-rule:evenodd;clip-rule:evenodd;stroke-linejoin:round;stroke-miterlimit:2;">
  <path d="M5.403,43.023c0,-1.183 0.96,-2.144 2.146,-2.144c1.184,-0 2.142,0.961 2.142,2.144c0,1.184 -0.958,2.142 -2.142,2.142c-1.186,0 -2.146,-0.958 -2.146,-2.142" style="fill:#79cccb;fill-rule:nonzero;" />
  <path d="M0,44.25c0,-0.927 0.75,-1.681 1.682,-1.681c0.93,-0 1.681,0.754 1.681,1.681c0,0.93 -0.751,1.682 -1.681,1.682c-0.932,0 -1.682,-0.752 -1.682,-1.682" style="fill:#79cccb;fill-rule:nonzero;" />
  <path d="M3.622,51.962c-0,-1.169 0.945,-2.115 2.114,-2.115c1.17,-0 2.111,0.946 2.111,2.115c0,1.164 -0.941,2.11 -2.111,2.11c-1.169,-0 -2.114,-0.946 -2.114,-2.11" style="fill:#79cccb;fill-rule:nonzero;" />
  <path d="M6.232,60.464c-0,-0.994 0.809,-1.804 1.808,-1.804c0.994,0 1.803,0.81 1.803,1.804c-0,1 -0.809,1.807 -1.803,1.807c-0.999,-0 -1.808,-0.807 -1.808,-1.807" style="fill:#79cccb;fill-rule:nonzero;" />
  <path d="M11.226,16.741c0,-1.201 0.978,-2.18 2.181,-2.18c1.202,-0 2.178,0.979 2.178,2.18c-0,1.204 -0.976,2.18 -2.178,2.18c-1.203,0 -2.181,-0.976 -2.181,-2.18" style="fill:#79cccb;fill-rule:nonzero;" />
  <path d="M11.872,9.937c-0,-0.9 0.711,-1.626 1.581,-1.626c0.874,-0 1.581,0.726 1.581,1.626c0,0.898 -0.707,1.628 -1.581,1.628c-0.87,-0 -1.581,-0.73 -1.581,-1.628" style="fill:#79cccb;fill-rule:nonzero;" />
  <path d="M26.559,9.792c-0,-1.254 1.017,-2.272 2.273,-2.272c1.256,0 2.274,1.018 2.274,2.272c0,1.254 -1.018,2.272 -2.274,2.272c-1.256,-0 -2.273,-1.018 -2.273,-2.272" style="fill:#a7a9ac;fill-rule:nonzero;" />
  <path d="M17.74,9.347c-0,-1.153 0.936,-2.088 2.09,-2.088c1.152,0 2.085,0.935 2.085,2.088c-0,1.152 -0.933,2.087 -2.085,2.087c-1.154,-0 -2.09,-0.935 -2.09,-2.087" style="fill:#79cccb;fill-rule:nonzero;" />
  <path d="M35.707,9.87c0,-1.514 1.231,-2.744 2.744,-2.744c1.517,0 2.744,1.23 2.744,2.744c-0,1.515 -1.227,2.744 -2.744,2.744c-1.513,-0 -2.744,-1.229 -2.744,-2.744" style="fill:#79cccb;fill-rule:nonzero;" />
  <path d="M45.345,11.367c-0,-1.515 1.229,-2.744 2.744,-2.744c1.514,-0 2.744,1.229 2.744,2.744c-0,1.516 -1.23,2.745 -2.744,2.745c-1.515,-0 -2.744,-1.229 -2.744,-2.745" style="fill:#79cccb;fill-rule:nonzero;" />
  <path d="M43.278,2.364c-0,-1.264 1.023,-2.289 2.289,-2.289c1.263,-0 2.287,1.025 2.287,2.289c-0,1.264 -1.024,2.288 -2.287,2.288c-1.266,-0 -2.289,-1.024 -2.289,-2.288" style="fill:#afd46c;fill-rule:nonzero;" />
  <path d="M53.105,4.844c0,-1.007 0.814,-1.821 1.82,-1.821c1.005,-0 1.818,0.814 1.818,1.821c-0,1.004 -0.813,1.819 -1.818,1.819c-1.006,0 -1.82,-0.815 -1.82,-1.819" style="fill:#79cccb;fill-rule:nonzero;" />
  <path d="M62.183,9.616c-0,-1.109 0.896,-2.008 2.005,-2.008c1.108,-0 2.004,0.899 2.004,2.008c-0,1.108 -0.896,2.008 -2.004,2.008c-1.109,0 -2.005,-0.9 -2.005,-2.008" style="fill:#79cccb;fill-rule:nonzero;" />
  <path d="M32.686,2.466c0,-1.364 1.106,-2.466 2.471,-2.466c1.366,0 2.469,1.102 2.469,2.466c-0,1.364 -1.103,2.472 -2.469,2.472c-1.365,-0 -2.471,-1.108 -2.471,-2.472" style="fill:#79cccb;fill-rule:nonzero;" />
  <path d="M24.543,3.327c-0,-1.048 0.846,-1.898 1.897,-1.898c1.051,-0 1.895,0.85 1.895,1.898c-0,1.046 -0.844,1.896 -1.895,1.896c-1.051,-0 -1.897,-0.85 -1.897,-1.896" style="fill:#79cccb;fill-rule:nonzero;" />
  <path d="M5.149,17.567c0,-0.825 0.669,-1.497 1.495,-1.497c0.827,0 1.496,0.672 1.496,1.497c-0,0.826 -0.669,1.495 -1.496,1.495c-0.826,0 -1.495,-0.669 -1.495,-1.495" style="fill:#79cccb;fill-rule:nonzero;" />
  <path d="M1.195,33.939c-0,-1.029 0.837,-1.863 1.865,-1.863c1.028,0 1.861,0.834 1.861,1.863c-0,1.028 -0.833,1.863 -1.861,1.863c-1.028,-0 -1.865,-0.835 -1.865,-1.863" style="fill:#f4793b;fill-rule:nonzero;" />
  <path d="M5.241,24.879c-0,-1.155 0.937,-2.094 2.093,-2.094c1.157,0 2.094,0.939 2.094,2.094c-0,1.157 -0.937,2.095 -2.094,2.095c-1.156,-0 -2.093,-0.938 -2.093,-2.095" style="fill:#79cccb;fill-rule:nonzero;" />
  <path d="M0.598,27.5c-0,-0.724 0.585,-1.311 1.31,-1.311c0.725,-0 1.31,0.587 1.31,1.311c0,0.723 -0.585,1.312 -1.31,1.312c-0.725,0 -1.31,-0.589 -1.31,-1.312" style="fill:#79cccb;fill-rule:nonzero;" />
</svg>