<?xml version="1.0" encoding="UTF-8" standalone="no"?>
<!DOCTYPE svg PUBLIC "-//W3C//DTD SVG 1.1//EN" "http://www.w3.org/Graphics/SVG/1.1/DTD/svg11.dtd">
<svg width="100%" height="100%" viewBox="0 0 183 96" version="1.1" xmlns="http://www.w3.org/2000/svg" xmlns:xlink="http://www.w3.org/1999/xlink" xml:space="preserve" xmlns:serif="http://www.serif.com/" style="fill-rule:evenodd;clip-rule:evenodd;stroke-linejoin:round;stroke-miterlimit:2;">
    <g transform="matrix(1,0,0,1,-134.999,-24.05)">
        <g id="Logo" transform="matrix(1.29565,0,0,1.67179,-1624.29,-786.781)">
            <g transform="matrix(0.487141,0,0,0.377536,1125.15,-18.2363)">
                <path d="M511.7,1405.58L518.061,1405.58L518.061,1396.9L522.894,1396.9C529.379,1396.9 534.584,1393.43 534.584,1386.74L534.584,1386.66C534.584,1380.75 530.412,1376.66 523.513,1376.66L511.7,1376.66L511.7,1405.58ZM518.061,1391.24L518.061,1382.4L522.976,1382.4C526.157,1382.4 528.14,1383.93 528.14,1386.78L528.14,1386.86C528.14,1389.34 526.281,1391.24 523.1,1391.24L518.061,1391.24Z" style="fill:white;fill-rule:nonzero;"/>
                <path d="M533.923,1405.58L540.408,1405.58L543.051,1399.09L555.278,1399.09L557.922,1405.58L564.572,1405.58L552.18,1376.45L546.315,1376.45L533.923,1405.58ZM545.323,1393.47L549.165,1384.1L553.006,1393.47L545.323,1393.47Z" style="fill:white;fill-rule:nonzero;"/>
                <path d="M569.033,1405.58L575.312,1405.58L575.312,1387.19L589.315,1405.58L594.726,1405.58L594.726,1376.66L588.447,1376.66L588.447,1394.46L574.899,1376.66L569.033,1376.66L569.033,1405.58Z" style="fill:white;fill-rule:nonzero;"/>
                <path d="M601.666,1405.58L612.942,1405.58C622.03,1405.58 628.308,1399.26 628.308,1391.12L628.308,1391.04C628.308,1382.9 622.03,1376.66 612.942,1376.66L601.666,1376.66L601.666,1405.58ZM612.942,1382.4C618.147,1382.4 621.658,1386 621.658,1391.12L621.658,1391.2C621.658,1396.32 618.147,1399.83 612.942,1399.83L608.027,1399.83L608.027,1382.4L612.942,1382.4Z" style="fill:white;fill-rule:nonzero;"/>
                <path d="M633.967,1405.58L655.984,1405.58L655.984,1399.92L640.287,1399.92L640.287,1393.85L653.918,1393.85L653.918,1388.19L640.287,1388.19L640.287,1382.32L655.777,1382.32L655.777,1376.66L633.967,1376.66L633.967,1405.58Z" style="fill:white;fill-rule:nonzero;"/>
                <path d="M661.643,1405.58L667.88,1405.58L667.88,1386.82L675.935,1399.05L676.1,1399.05L684.237,1386.7L684.237,1405.58L690.557,1405.58L690.557,1376.66L683.7,1376.66L676.1,1388.89L668.5,1376.66L661.643,1376.66L661.643,1405.58Z" style="fill:white;fill-rule:nonzero;"/>
                <rect x="697.786" y="1376.66" width="6.361" height="28.915" style="fill:white;"/>
                <path d="M724.924,1406.07C730.501,1406.07 733.805,1404.09 736.779,1400.91L732.731,1396.82C730.46,1398.88 728.436,1400.21 725.131,1400.21C720.174,1400.21 716.746,1396.08 716.746,1391.12L716.746,1391.04C716.746,1386.08 720.257,1382.03 725.131,1382.03C728.022,1382.03 730.294,1383.27 732.525,1385.29L736.573,1380.63C733.888,1377.98 730.625,1376.16 725.172,1376.16C716.291,1376.16 710.095,1382.9 710.095,1391.12L710.095,1391.2C710.095,1399.5 716.415,1406.07 724.924,1406.07Z" style="fill:white;fill-rule:nonzero;"/>
                <path d="M511.7,1440.98L518.061,1440.98L518.061,1432.31L522.894,1432.31C529.379,1432.31 534.584,1428.84 534.584,1422.15L534.584,1422.06C534.584,1416.16 530.412,1412.07 523.513,1412.07L511.7,1412.07L511.7,1440.98ZM518.061,1426.65L518.061,1417.81L522.976,1417.81C526.157,1417.81 528.14,1419.34 528.14,1422.19L528.14,1422.27C528.14,1424.75 526.281,1426.65 523.1,1426.65L518.061,1426.65Z" style="fill:white;fill-rule:nonzero;"/>
                <path d="M533.923,1440.98L540.408,1440.98L543.051,1434.5L555.278,1434.5L557.922,1440.98L564.572,1440.98L552.18,1411.86L546.315,1411.86L533.923,1440.98ZM545.323,1428.88L549.165,1419.5L553.006,1428.88L545.323,1428.88Z" style="fill:white;fill-rule:nonzero;"/>
                <path d="M580.723,1441.48C586.3,1441.48 589.604,1439.49 592.578,1436.31L588.53,1432.22C586.258,1434.29 584.234,1435.61 580.93,1435.61C575.973,1435.61 572.544,1431.48 572.544,1426.52L572.544,1426.44C572.544,1421.49 576.055,1417.44 580.93,1417.44C583.821,1417.44 586.093,1418.68 588.324,1420.7L592.372,1416.03C589.687,1413.39 586.423,1411.57 580.971,1411.57C572.09,1411.57 565.894,1418.3 565.894,1426.52L565.894,1426.61C565.894,1434.91 572.214,1441.48 580.723,1441.48Z" style="fill:white;fill-rule:nonzero;"/>
                <path d="M604.392,1440.98L610.753,1440.98L610.753,1417.93L619.551,1417.93L619.551,1412.07L595.593,1412.07L595.593,1417.93L604.392,1417.93L604.392,1440.98Z" style="fill:white;fill-rule:nonzero;"/>
            </g>
            <g transform="matrix(0.154663,0,0,0.119864,1303.42,380.36)">
                <g transform="matrix(0,5.37811,5.37811,0,402.097,1145.04)">
                    <path d="M2.654,-2.651C1.19,-2.651 0.001,-1.464 0.001,0.004C0.001,1.469 1.19,2.654 2.654,2.654C4.118,2.654 5.304,1.469 5.304,0.004C5.304,-1.464 4.118,-2.651 2.654,-2.651" style="fill:rgb(121,204,203);fill-rule:nonzero;"/>
                </g>
                <g transform="matrix(0,5.37811,5.37811,0,363.08,1156.29)">
                    <path d="M2.08,-2.081C0.933,-2.081 -0,-1.153 -0,0C-0,1.15 0.933,2.08 2.08,2.08C3.23,2.08 4.161,1.15 4.161,0C4.161,-1.153 3.23,-2.081 2.08,-2.081" style="fill:rgb(121,204,203);fill-rule:nonzero;"/>
                </g>
                <g transform="matrix(0,5.37811,5.37811,0,390.022,1204.71)">
                    <path d="M2.618,-2.61C1.172,-2.61 0.001,-1.44 0.001,0.006C0.001,1.453 1.172,2.618 2.618,2.618C4.058,2.618 5.228,1.453 5.228,0.006C5.228,-1.44 4.058,-2.61 2.618,-2.61" style="fill:rgb(121,204,203);fill-rule:nonzero;"/>
                </g>
                <g transform="matrix(0,5.37811,5.37811,0,405.374,1263.36)">
                    <path d="M2.232,-2.235C1.002,-2.235 0,-1.234 0,0.002C0,1.232 1.002,2.232 2.232,2.232C3.469,2.232 4.467,1.232 4.467,0.002C4.467,-1.234 3.469,-2.235 2.232,-2.235" style="fill:rgb(121,204,203);fill-rule:nonzero;"/>
                </g>
                <g transform="matrix(0,5.37811,5.37811,0,441.085,969.941)">
                    <path d="M2.696,-2.696C1.209,-2.696 -0.002,-1.486 -0.002,0.002C-0.002,1.489 1.209,2.696 2.696,2.696C4.185,2.696 5.393,1.489 5.393,0.002C5.393,-1.486 4.185,-2.696 2.696,-2.696" style="fill:rgb(121,204,203);fill-rule:nonzero;"/>
                </g>
                <g transform="matrix(0,5.37811,5.37811,0,441.403,928.645)">
                    <path d="M1.956,-1.957C0.843,-1.957 -0.056,-1.077 -0.056,-0C-0.056,1.081 0.843,1.956 1.956,1.956C3.067,1.956 3.97,1.081 3.97,-0C3.97,-1.077 3.067,-1.957 1.956,-1.957" style="fill:rgb(121,204,203);fill-rule:nonzero;"/>
                </g>
                <g transform="matrix(0,5.37811,5.37811,0,543.736,923.074)">
                    <path d="M2.812,-2.814C1.261,-2.814 0.002,-1.555 0.002,-0.001C0.002,1.553 1.261,2.812 2.812,2.812C4.364,2.812 5.623,1.553 5.623,-0.001C5.623,-1.555 4.364,-2.814 2.812,-2.814" style="fill:rgb(167,169,172);fill-rule:nonzero;"/>
                </g>
                <g transform="matrix(0,5.37811,5.37811,0,483.811,921.347)">
                    <path d="M2.583,-2.582C1.157,-2.582 -0,-1.424 -0,0.004C-0,1.429 1.157,2.583 2.583,2.583C4.009,2.583 5.165,1.429 5.165,0.004C5.165,-1.424 4.009,-2.582 2.583,-2.582" style="fill:rgb(121,204,203);fill-rule:nonzero;"/>
                </g>
                <g transform="matrix(0,5.37811,5.37811,0,607.728,920.464)">
                    <path d="M3.395,-3.394C1.521,-3.394 0,-1.872 0,0.001C0,1.877 1.521,3.395 3.395,3.395C5.269,3.395 6.789,1.877 6.789,0.001C6.789,-1.872 5.269,-3.394 3.395,-3.394" style="fill:rgb(121,204,203);fill-rule:nonzero;"/>
                </g>
                <g transform="matrix(0,5.37811,5.37811,0,671.858,930.42)">
                    <path d="M3.395,-3.395C1.521,-3.395 -0,-1.874 -0,0C-0,1.873 1.521,3.395 3.395,3.395C5.271,3.395 6.791,1.873 6.791,0C6.791,-1.874 5.271,-3.395 3.395,-3.395" style="fill:rgb(121,204,203);fill-rule:nonzero;"/>
                </g>
                <g transform="matrix(0,5.37811,5.37811,0,655.062,873.548)">
                    <path d="M2.832,-2.829C1.268,-2.829 -0.001,-1.563 -0.001,0.003C-0.001,1.565 1.268,2.832 2.832,2.832C4.395,2.832 5.662,1.565 5.662,0.003C5.662,-1.563 4.395,-2.829 2.832,-2.829" style="fill:rgb(175,212,108);fill-rule:nonzero;"/>
                </g>
                <g transform="matrix(0,5.37811,5.37811,0,717.331,893.169)">
                    <path d="M2.251,-2.249C1.005,-2.249 -0.002,-1.242 -0.002,0.002C-0.002,1.246 1.005,2.251 2.251,2.251C3.494,2.251 4.502,1.246 4.502,0.002C4.502,-1.242 3.494,-2.249 2.251,-2.249" style="fill:rgb(121,204,203);fill-rule:nonzero;"/>
                </g>
                <g transform="matrix(0,5.37811,5.37811,0,778.977,923.694)">
                    <path d="M2.479,-2.481C1.107,-2.481 -0.005,-1.372 -0.005,0C-0.005,1.371 1.107,2.479 2.479,2.479C3.85,2.479 4.964,1.371 4.964,0C4.964,-1.372 3.85,-2.481 2.479,-2.481" style="fill:rgb(121,204,203);fill-rule:nonzero;"/>
                </g>
                <g transform="matrix(0,5.37811,5.37811,0,585.821,873.036)">
                    <path d="M3.053,-3.058C1.366,-3.058 0.002,-1.69 0.002,-0.001C0.002,1.689 1.366,3.053 3.053,3.053C4.741,3.053 6.111,1.689 6.111,-0.001C6.111,-1.69 4.741,-3.058 3.053,-3.058" style="fill:rgb(121,204,203);fill-rule:nonzero;"/>
                </g>
                <g transform="matrix(0,5.37811,5.37811,0,527.801,882.565)">
                    <path d="M2.346,-2.345C1.05,-2.345 -0.002,-1.298 -0.002,0.002C-0.002,1.303 1.05,2.346 2.346,2.346C3.641,2.346 4.692,1.303 4.692,0.002C4.692,-1.298 3.641,-2.345 2.346,-2.345" style="fill:rgb(121,204,203);fill-rule:nonzero;"/>
                </g>
                <g transform="matrix(0,5.37811,5.37811,0,396.093,979.979)">
                    <path d="M1.851,-1.849C0.83,-1.849 -0.001,-1.021 -0.001,0.001C-0.001,1.023 0.83,1.851 1.851,1.851C2.873,1.851 3.701,1.023 3.701,0.001C3.701,-1.021 2.873,-1.849 1.851,-1.849" style="fill:rgb(121,204,203);fill-rule:nonzero;"/>
                </g>
                <g transform="matrix(0,5.37811,5.37811,0,372.234,1086.47)">
                    <path d="M2.305,-2.305C1.033,-2.305 0.001,-1.269 0.001,0.003C0.001,1.275 1.033,2.305 2.305,2.305C3.577,2.305 4.61,1.275 4.61,0.003C4.61,-1.269 3.577,-2.305 2.305,-2.305" style="fill:rgb(244,121,59);fill-rule:nonzero;"/>
                </g>
                <g transform="matrix(0,5.37811,5.37811,0,400.688,1024.66)">
                    <path d="M2.59,-2.59C1.161,-2.59 -0.001,-1.43 -0.001,0C-0.001,1.431 1.161,2.59 2.59,2.59C4.021,2.59 5.181,1.431 5.181,0C5.181,-1.43 4.021,-2.59 2.59,-2.59" style="fill:rgb(121,204,203);fill-rule:nonzero;"/>
                </g>
                <g transform="matrix(0,5.37811,5.37811,0,364.589,1047.31)">
                    <path d="M1.62,-1.622C0.725,-1.622 -0.002,-0.898 -0.002,-0.001C-0.002,0.896 0.725,1.62 1.62,1.62C2.515,1.62 3.244,0.896 3.244,-0.001C3.244,-0.898 2.515,-1.622 1.62,-1.622" style="fill:rgb(121,204,203);fill-rule:nonzero;"/>
                </g>
            </g>
            <g transform="matrix(0.0517396,0,0,0.0278668,961.17,395.548)">
                <path d="M8024.16,4996.84L8046.1,4996.84L8046.1,4846.42L8085.88,4846.42L8085.88,4817.16L7984.38,4817.16L7984.38,4846.42L8024.16,4846.42L8024.16,4996.84Z" style="fill:white;fill-rule:nonzero;"/>
                <path d="M8093.55,4996.84L8115.32,4996.84L8115.32,4945.24C8115.32,4909.31 8128.52,4891.6 8147.43,4891.6L8148.68,4891.6L8148.68,4858.74C8132.09,4857.71 8121.2,4871.57 8115.32,4891.85L8115.32,4861.31L8093.55,4861.31L8093.55,4996.84Z" style="fill:white;fill-rule:nonzero;"/>
                <path d="M8190.06,4999.66C8204.51,4999.66 8214.32,4990.94 8220.75,4979.9L8220.75,4996.84L8241.8,4996.84L8241.8,4916.49C8241.8,4898.78 8238.58,4884.41 8231.63,4874.65C8225.03,4864.9 8214.5,4859.51 8200.41,4859.51C8185.42,4859.51 8175.26,4863.87 8164.73,4870.55L8170.62,4894.93C8179.18,4889.8 8187.03,4886.46 8197.55,4886.46C8212.72,4886.46 8220.92,4896.73 8220.92,4915.98L8220.92,4919.32C8213.61,4915.98 8206.12,4913.67 8195.59,4913.67C8172.58,4913.67 8156.52,4928.05 8156.52,4957.31L8156.52,4957.82C8156.52,4985.03 8172.4,4999.66 8190.06,4999.66ZM8196.13,4977.07C8185.78,4977.07 8177.75,4969.63 8177.75,4956.54L8177.75,4956.03C8177.75,4941.91 8185.96,4933.44 8199.87,4933.44C8208.44,4933.44 8215.75,4935.75 8221.28,4938.83L8221.28,4948.07C8221.28,4965.27 8210.4,4977.07 8196.13,4977.07Z" style="fill:white;fill-rule:nonzero;"/>
                <path d="M8311.19,4999.92C8329.56,4999.92 8340.44,4989.4 8349.72,4974.51L8336.7,4956.03C8329.74,4966.04 8322.43,4972.71 8312.26,4972.71C8295.67,4972.71 8284.07,4953.46 8284.07,4929.33L8284.07,4928.82C8284.07,4905.2 8295.67,4885.69 8311.37,4885.69C8322.07,4885.69 8329.03,4892.88 8335.63,4902.63L8349.18,4881.84C8340.26,4867.98 8329.2,4858.48 8311.55,4858.48C8283.18,4858.48 8262.49,4890.83 8262.49,4929.33L8262.49,4929.84C8262.49,4968.35 8283.18,4999.92 8311.19,4999.92Z" style="fill:white;fill-rule:nonzero;"/>
                <path d="M8369.34,4996.84L8391.11,4996.84L8391.11,4958.08L8404.49,4938.06L8432.31,4996.84L8457.65,4996.84L8418.93,4916.49L8456.4,4861.31L8430.17,4861.31L8391.11,4921.37L8391.11,4809.45L8369.34,4809.45L8369.34,4996.84Z" style="fill:white;fill-rule:nonzero;"/>
                <path d="M8473.7,4840.52L8496.89,4840.52L8496.89,4810.99L8473.7,4810.99L8473.7,4840.52ZM8474.41,4996.84L8496.18,4996.84L8496.18,4861.31L8474.41,4861.31L8474.41,4996.84Z" style="fill:white;fill-rule:nonzero;"/>
                <path d="M8524.18,4996.84L8545.95,4996.84L8545.95,4920.35C8545.95,4899.3 8554.69,4886.72 8567.18,4886.72C8580.02,4886.72 8587.34,4898.78 8587.34,4919.83L8587.34,4996.84L8608.92,4996.84L8608.92,4910.33C8608.92,4879.02 8596.61,4858.48 8575.38,4858.48C8560.76,4858.48 8552.01,4869.52 8545.95,4882.1L8545.95,4861.31L8524.18,4861.31L8524.18,4996.84Z" style="fill:white;fill-rule:nonzero;"/>
                <path d="M8676.89,5038.42C8693.83,5038.42 8707.03,5032.52 8715.6,5020.2C8723.45,5008.9 8727.55,4991.96 8727.55,4969.12L8727.55,4861.31L8705.96,4861.31L8705.96,4881.59C8698.65,4869.01 8688.84,4858.48 8672.96,4858.48C8651.02,4858.48 8630.15,4882.1 8630.15,4922.14L8630.15,4922.66C8630.15,4962.44 8650.66,4986.06 8672.96,4986.06C8688.48,4986.06 8698.29,4975.79 8706.14,4961.42L8706.14,4971.68C8706.14,4998.89 8695.62,5013.01 8676.35,5013.01C8663.51,5013.01 8652.98,5007.88 8642.81,4998.89L8634.79,5022.25C8646.92,5032.78 8661.37,5038.42 8676.89,5038.42ZM8678.67,4959.62C8663.86,4959.62 8651.91,4944.47 8651.91,4922.4L8651.91,4921.89C8651.91,4899.55 8663.68,4884.92 8678.67,4884.92C8693.66,4884.92 8706.32,4899.81 8706.32,4921.89L8706.32,4922.4C8706.32,4944.47 8693.66,4959.62 8678.67,4959.62Z" style="fill:white;fill-rule:nonzero;"/>
                <path d="M8810.68,4996.84L8832.62,4996.84L8832.62,4934.21L8860.09,4934.21L8890.77,4996.84L8916.82,4996.84L8883.1,4928.82C8900.41,4921.63 8912.72,4903.92 8912.72,4874.4L8912.72,4873.88C8912.72,4858.23 8908.97,4844.88 8902.37,4835.12C8894.34,4823.83 8882.03,4817.16 8866.34,4817.16L8810.68,4817.16L8810.68,4996.84ZM8832.62,4906.23L8832.62,4845.9L8864.55,4845.9C8880.78,4845.9 8890.42,4856.43 8890.42,4875.68L8890.42,4876.19C8890.42,4894.42 8880.43,4906.23 8864.73,4906.23L8832.62,4906.23Z" style="fill:white;fill-rule:nonzero;"/>
                <path d="M8978.54,4999.92C8995.85,4999.92 9008.16,4989.91 9017.08,4974.51L9004.41,4958.34C8996.92,4968.86 8989.42,4974.51 8978.9,4974.51C8964.99,4974.51 8954.1,4962.19 8951.78,4940.11L9021,4940.11C9021.18,4937.03 9021.36,4934.21 9021.36,4931.38C9021.36,4892.37 9006.19,4858.48 8976.22,4858.48C8949.29,4858.48 8930.2,4890.31 8930.2,4929.07L8930.2,4929.59C8930.2,4971.43 8951.25,4999.92 8978.54,4999.92ZM8951.61,4919.57C8953.57,4898.53 8962.84,4883.9 8976.05,4883.9C8990.32,4883.9 8998.52,4899.55 8999.95,4919.57L8951.61,4919.57Z" style="fill:white;fill-rule:nonzero;"/>
                <path d="M9075.41,4999.41C9095.03,4999.41 9110.37,4985.29 9110.37,4956.8L9110.37,4956.28C9110.37,4931.9 9094.85,4922.91 9081.12,4916.75C9070.06,4911.62 9059.89,4907.51 9059.89,4897.5L9059.89,4896.99C9059.89,4889.54 9064.7,4883.64 9073.09,4883.64C9080.94,4883.64 9090.57,4888.52 9099.67,4896.47L9108.23,4874.4C9098.24,4864.9 9085.4,4859 9073.62,4859C9054.89,4859 9040.09,4874.65 9040.09,4900.58L9040.09,4901.09C9040.09,4926.76 9055.61,4934.98 9069.52,4940.62C9080.58,4945.5 9090.57,4949.1 9090.57,4959.62L9090.57,4960.13C9090.57,4969.12 9085.22,4974.76 9075.94,4974.76C9066.31,4974.76 9055.43,4969.12 9045.08,4958.08L9035.45,4979.13C9047.22,4992.73 9062.03,4999.41 9075.41,4999.41Z" style="fill:white;fill-rule:nonzero;"/>
                <path d="M9175.66,4999.92C9192.97,4999.92 9205.27,4989.91 9214.19,4974.51L9201.53,4958.34C9194.04,4968.86 9186.54,4974.51 9176.02,4974.51C9162.1,4974.51 9151.22,4962.19 9148.9,4940.11L9218.12,4940.11C9218.3,4937.03 9218.48,4934.21 9218.48,4931.38C9218.48,4892.37 9203.31,4858.48 9173.34,4858.48C9146.41,4858.48 9127.32,4890.31 9127.32,4929.07L9127.32,4929.59C9127.32,4971.43 9148.37,4999.92 9175.66,4999.92ZM9148.73,4919.57C9150.69,4898.53 9159.96,4883.9 9173.17,4883.9C9187.44,4883.9 9195.64,4899.55 9197.07,4919.57L9148.73,4919.57Z" style="fill:white;fill-rule:nonzero;"/>
                <path d="M9267.35,4999.66C9281.8,4999.66 9291.62,4990.94 9298.04,4979.9L9298.04,4996.84L9319.09,4996.84L9319.09,4916.49C9319.09,4898.78 9315.88,4884.41 9308.92,4874.65C9302.32,4864.9 9291.79,4859.51 9277.7,4859.51C9262.72,4859.51 9252.55,4863.87 9242.02,4870.55L9247.91,4894.93C9256.47,4889.8 9264.32,4886.46 9274.85,4886.46C9290.01,4886.46 9298.22,4896.73 9298.22,4915.98L9298.22,4919.32C9290.9,4915.98 9283.41,4913.67 9272.89,4913.67C9249.87,4913.67 9233.82,4928.05 9233.82,4957.31L9233.82,4957.82C9233.82,4985.03 9249.69,4999.66 9267.35,4999.66ZM9273.42,4977.07C9263.07,4977.07 9255.05,4969.63 9255.05,4956.54L9255.05,4956.03C9255.05,4941.91 9263.25,4933.44 9277.17,4933.44C9285.73,4933.44 9293.04,4935.75 9298.57,4938.83L9298.57,4948.07C9298.57,4965.27 9287.69,4977.07 9273.42,4977.07Z" style="fill:white;fill-rule:nonzero;"/>
                <path d="M9344.78,4996.84L9366.54,4996.84L9366.54,4945.24C9366.54,4909.31 9379.74,4891.6 9398.65,4891.6L9399.9,4891.6L9399.9,4858.74C9383.31,4857.71 9372.43,4871.57 9366.54,4891.85L9366.54,4861.31L9344.78,4861.31L9344.78,4996.84Z" style="fill:white;fill-rule:nonzero;"/>
                <path d="M9458.94,4999.92C9477.32,4999.92 9488.2,4989.4 9497.48,4974.51L9484.45,4956.03C9477.5,4966.04 9470.18,4972.71 9460.01,4972.71C9443.43,4972.71 9431.83,4953.46 9431.83,4929.33L9431.83,4928.82C9431.83,4905.2 9443.43,4885.69 9459.12,4885.69C9469.83,4885.69 9476.78,4892.88 9483.38,4902.63L9496.94,4881.84C9488.02,4867.98 9476.96,4858.48 9459.3,4858.48C9430.94,4858.48 9410.25,4890.83 9410.25,4929.33L9410.25,4929.84C9410.25,4968.35 9430.94,4999.92 9458.94,4999.92Z" style="fill:white;fill-rule:nonzero;"/>
                <path d="M9517.1,4996.84L9538.86,4996.84L9538.86,4920.35C9538.86,4899.3 9547.6,4886.72 9560.09,4886.72C9572.94,4886.72 9580.25,4898.78 9580.25,4919.83L9580.25,4996.84L9601.84,4996.84L9601.84,4910.33C9601.84,4879.02 9589.53,4858.48 9568.3,4858.48C9553.67,4858.48 9544.93,4869.52 9538.86,4882.1L9538.86,4809.45L9517.1,4809.45L9517.1,4996.84Z" style="fill:white;fill-rule:nonzero;"/>
                <path d="M9683.89,4996.84L9705.84,4996.84L9705.84,4923.68L9768.81,4923.68L9768.81,4894.93L9705.84,4894.93L9705.84,4845.9L9776.84,4845.9L9776.84,4817.16L9683.89,4817.16L9683.89,4996.84Z" style="fill:white;fill-rule:nonzero;"/>
                <path d="M9830.89,4999.66C9845.51,4999.66 9854.26,4988.62 9860.32,4975.79L9860.32,4996.84L9882.08,4996.84L9882.08,4861.31L9860.32,4861.31L9860.32,4937.8C9860.32,4958.85 9851.58,4971.17 9839.09,4971.17C9826.25,4971.17 9818.93,4959.36 9818.93,4938.31L9818.93,4861.31L9797.35,4861.31L9797.35,4947.55C9797.35,4979.13 9809.66,4999.66 9830.89,4999.66Z" style="fill:white;fill-rule:nonzero;"/>
                <path d="M9908.84,4996.84L9930.61,4996.84L9930.61,4920.35C9930.61,4899.3 9939.35,4886.72 9951.84,4886.72C9964.68,4886.72 9971.99,4898.78 9971.99,4919.83L9971.99,4996.84L9993.58,4996.84L9993.58,4910.33C9993.58,4879.02 9981.27,4858.48 9960.04,4858.48C9945.41,4858.48 9936.67,4869.52 9930.61,4882.1L9930.61,4861.31L9908.84,4861.31L9908.84,4996.84Z" style="fill:white;fill-rule:nonzero;"/>
                <path d="M10058.5,4999.66C10073.9,4999.66 10083.7,4988.37 10090.6,4974.25L10090.6,4996.84L10112.2,4996.84L10112.2,4809.45L10090.6,4809.45L10090.6,4882.36C10083.8,4869.52 10074,4858.48 10058.5,4858.48C10036,4858.48 10014.8,4883.9 10014.8,4928.82L10014.8,4929.33C10014.8,4974.25 10036.4,4999.66 10058.5,4999.66ZM10063.7,4972.71C10049.1,4972.71 10036.6,4955.51 10036.6,4929.33L10036.6,4928.82C10036.6,4902.12 10048.9,4885.44 10063.7,4885.44C10078.1,4885.44 10091,4902.63 10091,4928.82L10091,4929.33C10091,4955.26 10078.1,4972.71 10063.7,4972.71Z" style="fill:white;fill-rule:nonzero;"/>
                <path d="M10139.7,4840.52L10162.9,4840.52L10162.9,4810.99L10139.7,4810.99L10139.7,4840.52ZM10140.4,4996.84L10162.2,4996.84L10162.2,4861.31L10140.4,4861.31L10140.4,4996.84Z" style="fill:white;fill-rule:nonzero;"/>
                <path d="M10190.2,4996.84L10211.9,4996.84L10211.9,4920.35C10211.9,4899.3 10220.7,4886.72 10233.2,4886.72C10246,4886.72 10253.3,4898.78 10253.3,4919.83L10253.3,4996.84L10274.9,4996.84L10274.9,4910.33C10274.9,4879.02 10262.6,4858.48 10241.4,4858.48C10226.7,4858.48 10218,4869.52 10211.9,4882.1L10211.9,4861.31L10190.2,4861.31L10190.2,4996.84Z" style="fill:white;fill-rule:nonzero;"/>
                <path d="M10342.9,5038.42C10359.8,5038.42 10373,5032.52 10381.6,5020.2C10389.4,5008.9 10393.5,4991.96 10393.5,4969.12L10393.5,4861.31L10371.9,4861.31L10371.9,4881.59C10364.6,4869.01 10354.8,4858.48 10338.9,4858.48C10317,4858.48 10296.1,4882.1 10296.1,4922.14L10296.1,4922.66C10296.1,4962.44 10316.6,4986.06 10338.9,4986.06C10354.5,4986.06 10364.3,4975.79 10372.1,4961.42L10372.1,4971.68C10372.1,4998.89 10361.6,5013.01 10342.3,5013.01C10329.5,5013.01 10319,5007.88 10308.8,4998.89L10300.8,5022.25C10312.9,5032.78 10327.3,5038.42 10342.9,5038.42ZM10344.6,4959.62C10329.8,4959.62 10317.9,4944.47 10317.9,4922.4L10317.9,4921.89C10317.9,4899.55 10329.7,4884.92 10344.6,4884.92C10359.6,4884.92 10372.3,4899.81 10372.3,4921.89L10372.3,4922.4C10372.3,4944.47 10359.6,4959.62 10344.6,4959.62Z" style="fill:white;fill-rule:nonzero;"/>
                <path d="M8018.27,5270.61C8032.72,5270.61 8042.53,5261.89 8048.96,5250.85L8048.96,5267.79L8070.01,5267.79L8070.01,5187.44C8070.01,5169.73 8066.8,5155.36 8059.84,5145.61C8053.24,5135.85 8042.71,5130.46 8028.62,5130.46C8013.64,5130.46 8003.47,5134.82 7992.94,5141.5L7998.83,5165.88C8007.39,5160.75 8015.24,5157.41 8025.77,5157.41C8040.93,5157.41 8049.13,5167.68 8049.13,5186.93L8049.13,5190.27C8041.82,5186.93 8034.33,5184.62 8023.8,5184.62C8000.79,5184.62 7984.74,5199 7984.74,5228.26L7984.74,5228.77C7984.74,5255.98 8000.61,5270.61 8018.27,5270.61ZM8024.34,5248.02C8013.99,5248.02 8005.96,5240.58 8005.96,5227.49L8005.96,5226.98C8005.96,5212.86 8014.17,5204.39 8028.08,5204.39C8036.65,5204.39 8043.96,5206.7 8049.49,5209.78L8049.49,5219.02C8049.49,5236.22 8038.61,5248.02 8024.34,5248.02Z" style="fill:white;fill-rule:nonzero;"/>
                <path d="M8095.69,5267.79L8117.46,5267.79L8117.46,5191.3C8117.46,5170.25 8126.2,5157.67 8138.69,5157.67C8151.53,5157.67 8158.84,5169.73 8158.84,5190.78L8158.84,5267.79L8180.43,5267.79L8180.43,5181.28C8180.43,5149.97 8168.12,5129.43 8146.89,5129.43C8132.26,5129.43 8123.52,5140.47 8117.46,5153.05L8117.46,5132.26L8095.69,5132.26L8095.69,5267.79Z" style="fill:white;fill-rule:nonzero;"/>
                <path d="M8245.36,5270.61C8260.7,5270.61 8270.51,5259.32 8277.47,5245.2L8277.47,5267.79L8299.06,5267.79L8299.06,5080.41L8277.47,5080.41L8277.47,5153.31C8270.69,5140.47 8260.88,5129.43 8245.36,5129.43C8222.89,5129.43 8201.66,5154.85 8201.66,5199.77L8201.66,5200.28C8201.66,5245.2 8223.24,5270.61 8245.36,5270.61ZM8250.54,5243.66C8235.91,5243.66 8223.42,5226.46 8223.42,5200.28L8223.42,5199.77C8223.42,5173.07 8235.73,5156.39 8250.54,5156.39C8264.99,5156.39 8277.83,5173.58 8277.83,5199.77L8277.83,5200.28C8277.83,5226.21 8264.99,5243.66 8250.54,5243.66Z" style="fill:white;fill-rule:nonzero;"/>
                <path d="M8382.19,5267.79L8475.66,5267.79L8475.66,5239.55L8404.13,5239.55L8404.13,5191.55L8466.74,5191.55L8466.74,5163.06L8404.13,5163.06L8404.13,5116.34L8474.77,5116.34L8474.77,5088.11L8382.19,5088.11L8382.19,5267.79Z" style="fill:white;fill-rule:nonzero;"/>
                <path d="M8527.22,5268.82L8546.66,5268.82L8585.19,5132.26L8562.54,5132.26L8537.03,5231.85L8511.7,5132.26L8488.51,5132.26L8527.22,5268.82Z" style="fill:white;fill-rule:nonzero;"/>
                <path d="M8603.92,5111.47L8627.11,5111.47L8627.11,5081.95L8603.92,5081.95L8603.92,5111.47ZM8604.64,5267.79L8626.4,5267.79L8626.4,5132.26L8604.64,5132.26L8604.64,5267.79Z" style="fill:white;fill-rule:nonzero;"/>
                <path d="M8693.48,5270.61C8708.82,5270.61 8718.63,5259.32 8725.59,5245.2L8725.59,5267.79L8747.17,5267.79L8747.17,5080.41L8725.59,5080.41L8725.59,5153.31C8718.81,5140.47 8709,5129.43 8693.48,5129.43C8671,5129.43 8649.77,5154.85 8649.77,5199.77L8649.77,5200.28C8649.77,5245.2 8671.36,5270.61 8693.48,5270.61ZM8698.65,5243.66C8684.02,5243.66 8671.53,5226.46 8671.53,5200.28L8671.53,5199.77C8671.53,5173.07 8683.84,5156.39 8698.65,5156.39C8713.1,5156.39 8725.94,5173.58 8725.94,5199.77L8725.94,5200.28C8725.94,5226.21 8713.1,5243.66 8698.65,5243.66Z" style="fill:white;fill-rule:nonzero;"/>
                <path d="M8817.46,5270.87C8834.76,5270.87 8847.07,5260.86 8855.99,5245.46L8843.32,5229.29C8835.83,5239.81 8828.34,5245.46 8817.81,5245.46C8803.9,5245.46 8793.02,5233.14 8790.7,5211.06L8859.91,5211.06C8860.09,5207.98 8860.27,5205.16 8860.27,5202.33C8860.27,5163.32 8845.11,5129.43 8815.14,5129.43C8788.2,5129.43 8769.11,5161.26 8769.11,5200.02L8769.11,5200.54C8769.11,5242.38 8790.16,5270.87 8817.46,5270.87ZM8790.52,5190.53C8792.48,5169.48 8801.76,5154.85 8814.96,5154.85C8829.23,5154.85 8837.44,5170.5 8838.86,5190.53L8790.52,5190.53Z" style="fill:white;fill-rule:nonzero;"/>
                <path d="M8881.85,5267.79L8903.62,5267.79L8903.62,5191.3C8903.62,5170.25 8912.36,5157.67 8924.85,5157.67C8937.69,5157.67 8945.01,5169.73 8945.01,5190.78L8945.01,5267.79L8966.59,5267.79L8966.59,5181.28C8966.59,5149.97 8954.28,5129.43 8933.05,5129.43C8918.43,5129.43 8909.68,5140.47 8903.62,5153.05L8903.62,5132.26L8881.85,5132.26L8881.85,5267.79Z" style="fill:white;fill-rule:nonzero;"/>
                <path d="M9036.16,5270.87C9054.54,5270.87 9065.42,5260.35 9074.69,5245.46L9061.67,5226.98C9054.72,5236.99 9047.4,5243.66 9037.23,5243.66C9020.64,5243.66 9009.05,5224.41 9009.05,5200.28L9009.05,5199.77C9009.05,5176.15 9020.64,5156.64 9036.34,5156.64C9047.04,5156.64 9054,5163.83 9060.6,5173.58L9074.16,5152.79C9065.24,5138.93 9054.18,5129.43 9036.52,5129.43C9008.16,5129.43 8987.46,5161.78 8987.46,5200.28L8987.46,5200.79C8987.46,5239.3 9008.16,5270.87 9036.16,5270.87Z" style="fill:white;fill-rule:nonzero;"/>
                <path d="M9134.99,5270.87C9152.29,5270.87 9164.6,5260.86 9173.52,5245.46L9160.86,5229.29C9153.36,5239.81 9145.87,5245.46 9135.35,5245.46C9121.43,5245.46 9110.55,5233.14 9108.23,5211.06L9177.45,5211.06C9177.62,5207.98 9177.8,5205.16 9177.8,5202.33C9177.8,5163.32 9162.64,5129.43 9132.67,5129.43C9105.73,5129.43 9086.65,5161.26 9086.65,5200.02L9086.65,5200.54C9086.65,5242.38 9107.7,5270.87 9134.99,5270.87ZM9108.05,5190.53C9110.01,5169.48 9119.29,5154.85 9132.49,5154.85C9146.76,5154.85 9154.97,5170.5 9156.4,5190.53L9108.05,5190.53Z" style="fill:white;fill-rule:nonzero;"/>
                <path d="M9257.9,5267.79L9279.49,5267.79L9279.49,5158.95L9304.1,5158.95L9304.1,5133.28L9279.13,5133.28L9279.13,5125.84C9279.13,5111.98 9283.41,5105.31 9291.62,5105.31C9296.25,5105.31 9300,5106.59 9304.28,5108.64L9304.28,5082.46C9299.47,5080.41 9294.29,5078.87 9286.62,5078.87C9277.52,5078.87 9270.57,5082.46 9265.57,5089.65C9260.58,5096.83 9257.9,5108.13 9257.9,5123.02L9257.9,5133.03L9245.95,5133.03L9245.95,5158.95L9257.9,5158.95L9257.9,5267.79Z" style="fill:white;fill-rule:nonzero;"/>
                <path d="M9363.15,5270.87C9392.23,5270.87 9413.63,5238.78 9413.63,5200.28L9413.63,5199.77C9413.63,5161.01 9392.41,5129.43 9363.51,5129.43C9334.61,5129.43 9313.2,5161.52 9313.2,5200.28L9313.2,5200.79C9313.2,5239.3 9334.43,5270.87 9363.15,5270.87ZM9363.51,5243.66C9346.74,5243.66 9334.79,5223.9 9334.79,5200.28L9334.79,5199.77C9334.79,5176.15 9345.85,5156.64 9363.15,5156.64C9380.1,5156.64 9392.05,5176.41 9392.05,5200.28L9392.05,5200.79C9392.05,5224.15 9380.99,5243.66 9363.51,5243.66Z" style="fill:white;fill-rule:nonzero;"/>
                <path d="M9435.4,5267.79L9457.16,5267.79L9457.16,5216.19C9457.16,5180.26 9470.36,5162.55 9489.27,5162.55L9490.52,5162.55L9490.52,5129.69C9473.93,5128.66 9463.05,5142.53 9457.16,5162.8L9457.16,5132.26L9435.4,5132.26L9435.4,5267.79Z" style="fill:white;fill-rule:nonzero;"/>
                <path d="M9554.56,5267.79L9577.04,5267.79L9589.88,5224.41L9648.93,5224.41L9661.59,5267.79L9684.79,5267.79L9629.84,5086.82L9609.51,5086.82L9554.56,5267.79ZM9597.91,5196.43L9619.32,5124.56L9640.9,5196.43L9597.91,5196.43Z" style="fill:white;fill-rule:nonzero;"/>
                <path d="M9742.76,5270.87C9761.14,5270.87 9772.02,5260.35 9781.29,5245.46L9768.27,5226.98C9761.32,5236.99 9754,5243.66 9743.83,5243.66C9727.24,5243.66 9715.65,5224.41 9715.65,5200.28L9715.65,5199.77C9715.65,5176.15 9727.24,5156.64 9742.94,5156.64C9753.64,5156.64 9760.6,5163.83 9767.2,5173.58L9780.76,5152.79C9771.84,5138.93 9760.78,5129.43 9743.12,5129.43C9714.76,5129.43 9694.06,5161.78 9694.06,5200.28L9694.06,5200.79C9694.06,5239.3 9714.76,5270.87 9742.76,5270.87Z" style="fill:white;fill-rule:nonzero;"/>
                <path d="M9832.67,5270.1C9840.88,5270.1 9846.76,5267.53 9852.11,5263.17L9852.11,5237.76C9847.83,5240.84 9843.55,5242.38 9838.74,5242.38C9831.42,5242.38 9827.14,5237.5 9827.14,5225.44L9827.14,5158.95L9852.47,5158.95L9852.47,5132.26L9827.14,5132.26L9827.14,5095.04L9805.56,5095.04L9805.56,5132.26L9793.6,5132.26L9793.6,5158.95L9805.56,5158.95L9805.56,5230.31C9805.56,5260.09 9816.79,5270.1 9832.67,5270.1Z" style="fill:white;fill-rule:nonzero;"/>
                <path d="M9874.77,5111.47L9897.96,5111.47L9897.96,5081.95L9874.77,5081.95L9874.77,5111.47ZM9875.48,5267.79L9897.25,5267.79L9897.25,5132.26L9875.48,5132.26L9875.48,5267.79Z" style="fill:white;fill-rule:nonzero;"/>
                <path d="M9970.21,5270.87C9999.29,5270.87 10020.7,5238.78 10020.7,5200.28L10020.7,5199.77C10020.7,5161.01 9999.47,5129.43 9970.57,5129.43C9941.67,5129.43 9920.26,5161.52 9920.26,5200.28L9920.26,5200.79C9920.26,5239.3 9941.49,5270.87 9970.21,5270.87ZM9970.57,5243.66C9953.8,5243.66 9941.84,5223.9 9941.84,5200.28L9941.84,5199.77C9941.84,5176.15 9952.91,5156.64 9970.21,5156.64C9987.16,5156.64 9999.11,5176.41 9999.11,5200.28L9999.11,5200.79C9999.11,5224.15 9988.05,5243.66 9970.57,5243.66Z" style="fill:white;fill-rule:nonzero;"/>
                <path d="M10042.5,5267.79L10064.2,5267.79L10064.2,5191.3C10064.2,5170.25 10073,5157.67 10085.4,5157.67C10098.3,5157.67 10105.6,5169.73 10105.6,5190.78L10105.6,5267.79L10127.2,5267.79L10127.2,5181.28C10127.2,5149.97 10114.9,5129.43 10093.7,5129.43C10079,5129.43 10070.3,5140.47 10064.2,5153.05L10064.2,5132.26L10042.5,5132.26L10042.5,5267.79Z" style="fill:white;fill-rule:nonzero;"/>
            </g>
        </g>
    </g>
</svg>
