<?xml version="1.0" encoding="UTF-8" standalone="no"?><!DOCTYPE svg PUBLIC "-//W3C//DTD SVG 1.1//EN" "http://www.w3.org/Graphics/SVG/1.1/DTD/svg11.dtd"><svg width="100%" height="100%" viewBox="0 0 183 96" version="1.1" xmlns="http://www.w3.org/2000/svg" xmlns:xlink="http://www.w3.org/1999/xlink" xml:space="preserve" xmlns:serif="http://www.serif.com/" style="fill-rule:evenodd;clip-rule:evenodd;stroke-linejoin:round;stroke-miterlimit:2;"><g><g id="Logo"><g><path d="M21.478,45.829l4.015,-0l0,-5.479l3.051,0c4.093,0 7.378,-2.19 7.378,-6.412l-0,-0.051c-0,-3.73 -2.633,-6.311 -6.988,-6.311l-7.456,-0l0,18.253Zm4.015,-9.051l0,-5.579l3.102,-0c2.008,-0 3.26,0.965 3.26,2.764l-0,0.051c-0,1.565 -1.174,2.764 -3.181,2.764l-3.181,0Z" style="fill:#fff;fill-rule:nonzero;"/><path d="M35.505,45.829l4.093,-0l1.668,-4.096l7.717,-0l1.669,4.096l4.197,-0l-7.821,-18.386l-3.702,0l-7.821,18.386Zm7.195,-7.643l2.425,-5.914l2.424,5.914l-4.849,-0Z" style="fill:#fff;fill-rule:nonzero;"/><path d="M57.665,45.829l3.963,-0l-0,-11.607l8.838,11.607l3.415,-0l0,-18.253l-3.963,-0l0,11.234l-8.551,-11.234l-3.702,-0l-0,18.253Z" style="fill:#fff;fill-rule:nonzero;"/><path d="M78.262,45.829l7.117,-0c5.736,-0 9.698,-3.989 9.698,-9.127l0,-0.05c0,-5.138 -3.962,-9.076 -9.698,-9.076l-7.117,-0l-0,18.253Zm7.117,-14.63c3.285,-0 5.501,2.272 5.501,5.503l-0,0.051c-0,3.231 -2.216,5.447 -5.501,5.447l-3.103,-0l0,-11.001l3.103,-0Z" style="fill:#fff;fill-rule:nonzero;"/><path d="M98.649,45.829l13.896,-0l0,-3.572l-9.907,-0l-0,-3.832l8.603,0l0,-3.572l-8.603,-0l-0,-3.705l9.777,0l-0,-3.572l-13.766,-0l-0,18.253Z" style="fill:#fff;fill-rule:nonzero;"/><path d="M116.117,45.829l3.937,-0l-0,-11.841l5.084,7.719l0.104,0l5.136,-7.794l-0,11.916l3.988,-0l0,-18.253l-4.327,-0l-4.797,7.719l-4.797,-7.719l-4.328,-0l-0,18.253Z" style="fill:#fff;fill-rule:nonzero;"/><rect x="138.929" y="27.576" width="4.015" height="18.25" style="fill:#fff;"/><path d="M156.058,46.138c3.52,0 5.605,-1.25 7.482,-3.257l-2.555,-2.581c-1.433,1.3 -2.711,2.14 -4.797,2.14c-3.128,-0 -5.292,-2.607 -5.292,-5.738l0,-0.05c0,-3.131 2.216,-5.687 5.292,-5.687c1.825,0 3.259,0.783 4.667,2.058l2.555,-2.942c-1.695,-1.672 -3.754,-2.821 -7.196,-2.821c-5.605,0 -9.516,4.254 -9.516,9.442l0,0.051c0,5.238 3.989,9.385 9.36,9.385Z" style="fill:#fff;fill-rule:nonzero;"/><path d="M21.478,68.172l4.015,-0l0,-5.472l3.051,-0c4.093,-0 7.378,-2.19 7.378,-6.413l-0,-0.057c-0,-3.723 -2.633,-6.305 -6.988,-6.305l-7.456,0l0,18.247Zm4.015,-9.045l0,-5.579l3.102,-0c2.008,-0 3.26,0.966 3.26,2.764l-0,0.051c-0,1.565 -1.174,2.764 -3.181,2.764l-3.181,0Z" style="fill:#fff;fill-rule:nonzero;"/><path d="M35.505,68.172l4.093,-0l1.668,-4.09l7.717,0l1.669,4.09l4.197,-0l-7.821,-18.379l-3.702,-0l-7.821,18.379Zm7.195,-7.637l2.425,-5.92l2.424,5.92l-4.849,-0Z" style="fill:#fff;fill-rule:nonzero;"/><path d="M65.043,68.488c3.52,-0 5.606,-1.256 7.483,-3.264l-2.555,-2.581c-1.434,1.307 -2.712,2.14 -4.797,2.14c-3.129,-0 -5.293,-2.607 -5.293,-5.738l-0,-0.05c-0,-3.124 2.216,-5.681 5.293,-5.681c1.825,0 3.259,0.783 4.667,2.058l2.555,-2.947c-1.695,-1.667 -3.755,-2.815 -7.196,-2.815c-5.606,-0 -9.516,4.247 -9.516,9.435l-0,0.057c-0,5.239 3.989,9.386 9.359,9.386Z" style="fill:#fff;fill-rule:nonzero;"/><path d="M79.982,68.172l4.015,-0l0,-14.548l5.553,-0l0,-3.699l-15.121,0l-0,3.699l5.553,-0l0,14.548Z" style="fill:#fff;fill-rule:nonzero;"/></g><g><g><path d="M7.206,57.363c-0,-1.578 1.279,-2.859 2.861,-2.859c1.579,-0 2.856,1.281 2.856,2.859c0,1.578 -1.277,2.856 -2.856,2.856c-1.582,-0 -2.861,-1.278 -2.861,-2.856" style="fill:#79cccb;fill-rule:nonzero;"/></g><g><path d="M0.002,58.999c-0,-1.236 1,-2.242 2.242,-2.242c1.24,0 2.242,1.006 2.242,2.242c0,1.239 -1.002,2.242 -2.242,2.242c-1.242,0 -2.242,-1.003 -2.242,-2.242" style="fill:#79cccb;fill-rule:nonzero;"/></g><g><path d="M4.83,69.281c0,-1.558 1.261,-2.82 2.82,-2.82c1.559,-0 2.815,1.262 2.815,2.82c-0,1.552 -1.256,2.813 -2.815,2.813c-1.559,0 -2.82,-1.261 -2.82,-2.813" style="fill:#79cccb;fill-rule:nonzero;"/></g><g><path d="M8.311,80.618c-0,-1.326 1.079,-2.405 2.411,-2.405c1.325,-0 2.403,1.079 2.403,2.405c0,1.333 -1.078,2.409 -2.403,2.409c-1.332,-0 -2.411,-1.076 -2.411,-2.409" style="fill:#79cccb;fill-rule:nonzero;"/></g><g><path d="M14.97,22.321c0,-1.603 1.304,-2.908 2.908,-2.908c1.602,-0 2.903,1.305 2.903,2.908c0,1.604 -1.301,2.906 -2.903,2.906c-1.604,0 -2.908,-1.302 -2.908,-2.906" style="fill:#79cccb;fill-rule:nonzero;"/></g><g><path d="M15.83,13.248c0,-1.2 0.949,-2.169 2.109,-2.169c1.165,0 2.108,0.969 2.108,2.169c0,1.197 -0.943,2.17 -2.108,2.17c-1.16,0 -2.109,-0.973 -2.109,-2.17" style="fill:#79cccb;fill-rule:nonzero;"/></g><g><path d="M35.413,13.054c0,-1.672 1.357,-3.028 3.032,-3.028c1.675,-0 3.031,1.356 3.031,3.028c0,1.673 -1.356,3.029 -3.031,3.029c-1.675,0 -3.032,-1.356 -3.032,-3.029" style="fill:#a7a9ac;fill-rule:nonzero;"/></g><g><path d="M23.655,12.461c-0,-1.537 1.248,-2.784 2.787,-2.784c1.536,0 2.779,1.247 2.779,2.784c0,1.537 -1.243,2.783 -2.779,2.783c-1.539,-0 -2.787,-1.246 -2.787,-2.783" style="fill:#79cccb;fill-rule:nonzero;"/></g><g><path d="M47.611,13.159c0,-2.019 1.641,-3.659 3.659,-3.659c2.022,0 3.658,1.64 3.658,3.659c0,2.02 -1.636,3.658 -3.658,3.658c-2.018,0 -3.659,-1.638 -3.659,-3.658" style="fill:#79cccb;fill-rule:nonzero;"/></g><g><path d="M60.461,15.154c0,-2.019 1.64,-3.658 3.659,-3.658c2.019,-0 3.659,1.639 3.659,3.658c-0,2.022 -1.64,3.66 -3.659,3.66c-2.019,0 -3.659,-1.638 -3.659,-3.66" style="fill:#79cccb;fill-rule:nonzero;"/></g><g><path d="M57.706,3.151c-0,-1.685 1.364,-3.053 3.052,-3.053c1.683,0 3.049,1.368 3.049,3.053c-0,1.685 -1.366,3.05 -3.049,3.05c-1.688,0 -3.052,-1.365 -3.052,-3.05" style="fill:#afd46c;fill-rule:nonzero;"/></g><g><path d="M70.809,6.457c-0,-1.343 1.085,-2.428 2.426,-2.428c1.34,-0 2.423,1.085 2.423,2.428c0,1.339 -1.083,2.426 -2.423,2.426c-1.341,-0 -2.426,-1.087 -2.426,-2.426" style="fill:#79cccb;fill-rule:nonzero;"/></g><g><path d="M82.912,12.819c-0,-1.478 1.195,-2.677 2.674,-2.677c1.477,0 2.671,1.199 2.671,2.677c0,1.478 -1.194,2.678 -2.671,2.678c-1.479,0 -2.674,-1.2 -2.674,-2.678" style="fill:#79cccb;fill-rule:nonzero;"/></g><g><path d="M43.584,3.287c-0,-1.818 1.474,-3.288 3.294,-3.288c1.822,-0 3.292,1.47 3.292,3.288c-0,1.819 -1.47,3.295 -3.292,3.295c-1.82,0 -3.294,-1.476 -3.294,-3.295" style="fill:#79cccb;fill-rule:nonzero;"/></g><g><path d="M32.725,4.434c0,-1.396 1.129,-2.53 2.53,-2.53c1.402,-0 2.526,1.134 2.526,2.53c0,1.396 -1.124,2.529 -2.526,2.529c-1.401,-0 -2.53,-1.133 -2.53,-2.529" style="fill:#79cccb;fill-rule:nonzero;"/></g><g><path d="M6.867,23.421c0,-1.1 0.893,-1.996 1.994,-1.996c1.101,0 1.994,0.896 1.994,1.996c-0,1.102 -0.893,1.994 -1.994,1.994c-1.101,0 -1.994,-0.892 -1.994,-1.994" style="fill:#79cccb;fill-rule:nonzero;"/></g><g><path d="M1.595,45.25c-0,-1.371 1.116,-2.483 2.487,-2.483c1.371,0 2.481,1.112 2.481,2.483c-0,1.371 -1.11,2.484 -2.481,2.484c-1.371,0 -2.487,-1.113 -2.487,-2.484" style="fill:#f4793b;fill-rule:nonzero;"/></g><g><path d="M6.989,33.171c0,-1.54 1.251,-2.792 2.792,-2.792c1.542,-0 2.791,1.252 2.791,2.792c-0,1.542 -1.249,2.793 -2.791,2.793c-1.541,-0 -2.792,-1.251 -2.792,-2.793" style="fill:#79cccb;fill-rule:nonzero;"/></g><g><path d="M0.799,36.665c-0,-0.965 0.78,-1.748 1.747,-1.748c0.966,-0 1.747,0.783 1.747,1.748c-0,0.964 -0.781,1.75 -1.747,1.75c-0.967,-0 -1.747,-0.786 -1.747,-1.75" style="fill:#79cccb;fill-rule:nonzero;"/></g></g><g><path d="M23.962,83.232l1.471,0l-0,-7.008l2.666,0l0,-1.363l-6.804,0l0,1.363l2.667,0l-0,7.008Z" style="fill:#fff;fill-rule:nonzero;"/><path d="M28.613,83.232l1.46,0l-0,-2.404c-0,-1.674 0.885,-2.499 2.152,-2.499l0.084,0l0,-1.531c-1.112,-0.048 -1.842,0.598 -2.236,1.543l-0,-1.423l-1.46,0l0,6.314Z" style="fill:#fff;fill-rule:nonzero;"/><path d="M35.083,83.364c0.969,-0 1.626,-0.407 2.058,-0.921l-0,0.789l1.411,0l-0,-3.743c-0,-0.825 -0.216,-1.495 -0.682,-1.949c-0.443,-0.455 -1.148,-0.706 -2.093,-0.706c-1.005,0 -1.686,0.203 -2.392,0.515l0.395,1.135c0.574,-0.239 1.1,-0.394 1.805,-0.394c1.017,-0 1.567,0.478 1.567,1.375l-0,0.156c-0.49,-0.156 -0.992,-0.264 -1.698,-0.264c-1.543,0 -2.619,0.67 -2.619,2.034l-0,0.023c-0,1.268 1.064,1.95 2.248,1.95Zm0.407,-1.053c-0.694,0 -1.232,-0.346 -1.232,-0.956l-0,-0.024c-0,-0.658 0.55,-1.052 1.483,-1.052c0.574,-0 1.064,0.107 1.435,0.251l0,0.43c0,0.801 -0.729,1.351 -1.686,1.351Z" style="fill:#fff;fill-rule:nonzero;"/><path d="M43.203,83.376c1.232,-0 1.961,-0.49 2.583,-1.184l-0.873,-0.861c-0.466,0.466 -0.956,0.777 -1.638,0.777c-1.112,0 -1.89,-0.897 -1.89,-2.021l0,-0.024c0,-1.1 0.778,-2.009 1.83,-2.009c0.718,-0 1.184,0.335 1.627,0.789l0.908,-0.968c-0.598,-0.646 -1.339,-1.089 -2.523,-1.089c-1.901,0 -3.288,1.507 -3.288,3.301l-0,0.024c-0,1.794 1.387,3.265 3.264,3.265Z" style="fill:#fff;fill-rule:nonzero;"/><path d="M47.101,83.232l1.46,0l-0,-1.806l0.897,-0.932l1.865,2.738l1.698,0l-2.595,-3.743l2.512,-2.571l-1.759,0l-2.618,2.798l-0,-5.214l-1.46,0l0,8.73Z" style="fill:#fff;fill-rule:nonzero;"/><path d="M54.097,75.95l1.555,-0l-0,-1.376l-1.555,-0l0,1.376Zm0.048,7.282l1.459,0l0,-6.314l-1.459,0l-0,6.314Z" style="fill:#fff;fill-rule:nonzero;"/><path d="M57.481,83.232l1.46,0l-0,-3.563c-0,-0.981 0.586,-1.567 1.423,-1.567c0.861,-0 1.351,0.562 1.351,1.542l0,3.588l1.447,0l0,-4.03c0,-1.459 -0.825,-2.416 -2.248,-2.416c-0.98,0 -1.567,0.515 -1.973,1.101l-0,-0.969l-1.46,0l0,6.314Z" style="fill:#fff;fill-rule:nonzero;"/><path d="M67.718,85.169c1.136,0 2.021,-0.275 2.595,-0.849c0.527,-0.526 0.802,-1.315 0.802,-2.379l-0,-5.023l-1.448,0l0,0.945c-0.49,-0.586 -1.147,-1.077 -2.212,-1.077c-1.471,0 -2.87,1.101 -2.87,2.966l0,0.024c0,1.854 1.375,2.954 2.87,2.954c1.04,-0 1.698,-0.479 2.224,-1.148l0,0.478c0,1.268 -0.705,1.925 -1.997,1.925c-0.86,0 -1.566,-0.239 -2.248,-0.657l-0.538,1.088c0.813,0.491 1.782,0.753 2.822,0.753Zm0.12,-3.671c-0.993,0 -1.794,-0.706 -1.794,-1.734l-0,-0.024c-0,-1.04 0.789,-1.722 1.794,-1.722c1.005,0 1.853,0.694 1.853,1.722l0,0.024c0,1.028 -0.848,1.734 -1.853,1.734Z" style="fill:#fff;fill-rule:nonzero;"/><path d="M76.687,83.232l1.471,0l0,-2.918l1.842,0l2.056,2.918l1.747,0l-2.261,-3.169c1.16,-0.335 1.986,-1.16 1.986,-2.535l-0,-0.024c-0,-0.729 -0.252,-1.351 -0.694,-1.806c-0.538,-0.526 -1.364,-0.837 -2.415,-0.837l-3.732,0l0,8.371Zm1.471,-4.221l0,-2.811l2.141,0c1.088,0 1.734,0.491 1.734,1.388l-0,0.023c-0,0.85 -0.67,1.4 -1.722,1.4l-2.153,-0Z" style="fill:#fff;fill-rule:nonzero;"/><path d="M87.94,83.376c1.16,-0 1.986,-0.467 2.584,-1.184l-0.85,-0.753c-0.502,0.49 -1.005,0.753 -1.71,0.753c-0.932,-0 -1.662,-0.574 -1.818,-1.603l4.64,0c0.012,-0.143 0.025,-0.275 0.025,-0.406c-0,-1.818 -1.017,-3.397 -3.027,-3.397c-1.805,0 -3.085,1.483 -3.085,3.289l0,0.024c0,1.949 1.412,3.277 3.241,3.277Zm-1.805,-3.744c0.131,-0.98 0.753,-1.661 1.638,-1.661c0.957,-0 1.506,0.729 1.602,1.661l-3.24,0Z" style="fill:#fff;fill-rule:nonzero;"/><path d="M94.434,83.352c1.315,-0 2.343,-0.658 2.343,-1.985l0,-0.024c0,-1.136 -1.04,-1.555 -1.96,-1.842c-0.742,-0.239 -1.424,-0.43 -1.424,-0.897l0,-0.024c0,-0.347 0.323,-0.622 0.885,-0.622c0.527,0 1.172,0.228 1.782,0.598l0.574,-1.028c-0.67,-0.443 -1.53,-0.717 -2.32,-0.717c-1.256,-0 -2.248,0.729 -2.248,1.937l0,0.023c0,1.196 1.041,1.579 1.973,1.842c0.741,0.227 1.411,0.395 1.411,0.885l0,0.024c0,0.419 -0.359,0.682 -0.981,0.682c-0.645,-0 -1.375,-0.263 -2.068,-0.778l-0.646,0.981c0.789,0.634 1.782,0.945 2.679,0.945Z" style="fill:#fff;fill-rule:nonzero;"/><path d="M101.154,83.376c1.161,-0 1.985,-0.467 2.583,-1.184l-0.849,-0.753c-0.502,0.49 -1.004,0.753 -1.71,0.753c-0.933,-0 -1.662,-0.574 -1.818,-1.603l4.641,0c0.012,-0.143 0.024,-0.275 0.024,-0.406c-0,-1.818 -1.017,-3.397 -3.026,-3.397c-1.806,0 -3.085,1.483 -3.085,3.289l-0,0.024c-0,1.949 1.411,3.277 3.24,3.277Zm-1.805,-3.744c0.131,-0.98 0.753,-1.661 1.638,-1.661c0.957,-0 1.507,0.729 1.602,1.661l-3.24,0Z" style="fill:#fff;fill-rule:nonzero;"/><path d="M107.301,83.364c0.968,-0 1.627,-0.407 2.057,-0.921l0,0.789l1.411,0l0,-3.743c0,-0.825 -0.215,-1.495 -0.681,-1.949c-0.443,-0.455 -1.149,-0.706 -2.093,-0.706c-1.005,0 -1.686,0.203 -2.392,0.515l0.395,1.135c0.573,-0.239 1.1,-0.394 1.806,-0.394c1.016,-0 1.566,0.478 1.566,1.375l0,0.156c-0.49,-0.156 -0.993,-0.264 -1.698,-0.264c-1.543,0 -2.619,0.67 -2.619,2.034l0,0.023c0,1.268 1.064,1.95 2.248,1.95Zm0.407,-1.053c-0.694,0 -1.232,-0.346 -1.232,-0.956l0,-0.024c0,-0.658 0.55,-1.052 1.483,-1.052c0.574,-0 1.064,0.107 1.435,0.251l-0,0.43c-0,0.801 -0.73,1.351 -1.686,1.351Z" style="fill:#fff;fill-rule:nonzero;"/><path d="M112.491,83.232l1.459,0l0,-2.404c0,-1.674 0.885,-2.499 2.153,-2.499l0.083,0l0,-1.531c-1.112,-0.048 -1.841,0.598 -2.236,1.543l0,-1.423l-1.459,0l0,6.314Z" style="fill:#fff;fill-rule:nonzero;"/><path d="M120.144,83.376c1.232,-0 1.962,-0.49 2.584,-1.184l-0.874,-0.861c-0.465,0.466 -0.956,0.777 -1.638,0.777c-1.111,0 -1.889,-0.897 -1.889,-2.021l-0,-0.024c-0,-1.1 0.778,-2.009 1.829,-2.009c0.718,-0 1.184,0.335 1.627,0.789l0.909,-0.968c-0.598,-0.646 -1.34,-1.089 -2.524,-1.089c-1.901,0 -3.288,1.507 -3.288,3.301l0,0.024c0,1.794 1.387,3.265 3.264,3.265Z" style="fill:#fff;fill-rule:nonzero;"/><path d="M124.043,83.232l1.459,0l-0,-3.563c-0,-0.981 0.586,-1.567 1.423,-1.567c0.861,-0 1.352,0.562 1.352,1.542l-0,3.588l1.447,0l-0,-4.03c-0,-1.459 -0.825,-2.416 -2.249,-2.416c-0.98,0 -1.566,0.515 -1.973,1.101l-0,-3.385l-1.459,0l0,8.73Z" style="fill:#fff;fill-rule:nonzero;"/><path d="M135.224,83.232l1.472,0l-0,-3.408l4.221,-0l-0,-1.34l-4.221,0l-0,-2.284l4.759,0l0,-1.339l-6.231,0l0,8.371Z" style="fill:#fff;fill-rule:nonzero;"/><path d="M145.079,83.364c0.98,-0 1.566,-0.515 1.972,-1.113l0,0.981l1.459,0l0,-6.314l-1.459,0l0,3.564c0,0.98 -0.586,1.554 -1.423,1.554c-0.861,0 -1.351,-0.55 -1.351,-1.531l-0,-3.587l-1.447,0l0,4.018c0,1.471 0.825,2.428 2.249,2.428Z" style="fill:#fff;fill-rule:nonzero;"/><path d="M150.304,83.232l1.459,0l0,-3.563c0,-0.981 0.586,-1.567 1.424,-1.567c0.86,-0 1.35,0.562 1.35,1.542l0,3.588l1.448,0l-0,-4.03c-0,-1.459 -0.826,-2.416 -2.249,-2.416c-0.98,0 -1.566,0.515 -1.973,1.101l0,-0.969l-1.459,0l-0,6.314Z" style="fill:#fff;fill-rule:nonzero;"/><path d="M160.337,83.364c1.032,-0 1.689,-0.526 2.152,-1.184l-0,1.052l1.448,0l-0,-8.73l-1.448,0l-0,3.397c-0.456,-0.598 -1.113,-1.113 -2.152,-1.113c-1.509,0 -2.93,1.185 -2.93,3.277l0,0.024c0,2.093 1.448,3.277 2.93,3.277Zm0.348,-1.256c-0.978,0 -1.816,-0.801 -1.816,-2.021l-0,-0.024c-0,-1.244 0.824,-2.021 1.816,-2.021c0.966,0 1.83,0.801 1.83,2.021l0,0.024c0,1.208 -0.864,2.021 -1.83,2.021Z" style="fill:#fff;fill-rule:nonzero;"/><path d="M165.78,75.95l1.555,-0l0,-1.376l-1.555,-0l0,1.376Zm0.047,7.282l1.461,0l0,-6.314l-1.461,0l-0,6.314Z" style="fill:#fff;fill-rule:nonzero;"/><path d="M169.165,83.232l1.455,0l0,-3.563c0,-0.981 0.59,-1.567 1.428,-1.567c0.858,-0 1.347,0.562 1.347,1.542l0,3.588l1.448,0l0,-4.03c0,-1.459 -0.824,-2.416 -2.245,-2.416c-0.986,0 -1.569,0.515 -1.978,1.101l0,-0.969l-1.455,0l0,6.314Z" style="fill:#fff;fill-rule:nonzero;"/><path d="M179.402,85.169c1.133,0 2.018,-0.275 2.594,-0.849c0.523,-0.526 0.798,-1.315 0.798,-2.379l-0,-5.023l-1.448,0l-0,0.945c-0.489,-0.586 -1.146,-1.077 -2.212,-1.077c-1.468,0 -2.869,1.101 -2.869,2.966l-0,0.024c-0,1.854 1.374,2.954 2.869,2.954c1.045,-0 1.702,-0.479 2.225,-1.148l0,0.478c0,1.268 -0.704,1.925 -1.997,1.925c-0.858,0 -1.562,-0.239 -2.246,-0.657l-0.536,1.088c0.811,0.491 1.776,0.753 2.822,0.753Zm0.114,-3.671c-0.992,0 -1.79,-0.706 -1.79,-1.734l-0,-0.024c-0,-1.04 0.791,-1.722 1.79,-1.722c1.005,0 1.857,0.694 1.857,1.722l-0,0.024c-0,1.028 -0.852,1.734 -1.857,1.734Z" style="fill:#fff;fill-rule:nonzero;"/><path d="M23.567,95.986c0.969,0 1.626,-0.406 2.057,-0.92l0,0.789l1.411,0l0,-3.743c0,-0.825 -0.215,-1.495 -0.681,-1.949c-0.443,-0.455 -1.149,-0.706 -2.093,-0.706c-1.004,0 -1.686,0.203 -2.392,0.515l0.395,1.135c0.574,-0.239 1.1,-0.394 1.806,-0.394c1.016,-0 1.566,0.478 1.566,1.375l-0,0.156c-0.49,-0.156 -0.992,-0.264 -1.698,-0.264c-1.543,0 -2.619,0.67 -2.619,2.033l0,0.024c0,1.268 1.064,1.949 2.248,1.949Zm0.407,-1.052c-0.694,-0 -1.232,-0.347 -1.232,-0.956l-0,-0.024c-0,-0.658 0.55,-1.053 1.483,-1.053c0.574,0 1.064,0.108 1.435,0.251l-0,0.431c-0,0.801 -0.73,1.351 -1.686,1.351Z" style="fill:#fff;fill-rule:nonzero;"/><path d="M28.757,95.855l1.459,0l0,-3.563c0,-0.981 0.586,-1.567 1.423,-1.567c0.861,-0 1.351,0.562 1.351,1.542l0,3.588l1.448,0l-0,-4.03c-0,-1.459 -0.826,-2.416 -2.249,-2.416c-0.981,0 -1.566,0.515 -1.973,1.101l0,-0.969l-1.459,0l-0,6.314Z" style="fill:#fff;fill-rule:nonzero;"/><path d="M38.79,95.986c1.029,0 1.686,-0.526 2.153,-1.183l-0,1.052l1.447,0l0,-8.73l-1.447,0l-0,3.397c-0.455,-0.598 -1.112,-1.113 -2.153,-1.113c-1.506,0 -2.929,1.184 -2.929,3.277l-0,0.024c-0,2.093 1.446,3.276 2.929,3.276Zm0.348,-1.255c-0.981,-0 -1.819,-0.801 -1.819,-2.021l0,-0.024c0,-1.244 0.826,-2.021 1.819,-2.021c0.968,0 1.829,0.801 1.829,2.021l-0,0.024c-0,1.208 -0.861,2.021 -1.829,2.021Z" style="fill:#fff;fill-rule:nonzero;"/><path d="M47.963,95.855l6.266,0l-0,-1.316l-4.795,0l-0,-2.236l4.197,0l-0,-1.327l-4.197,-0l-0,-2.177l4.735,0l0,-1.315l-6.206,0l-0,8.371Z" style="fill:#fff;fill-rule:nonzero;"/><path d="M57.685,95.903l1.303,0l2.583,-6.362l-1.518,0l-1.71,4.64l-1.698,-4.64l-1.555,0l2.595,6.362Z" style="fill:#fff;fill-rule:nonzero;"/><path d="M62.827,88.572l1.554,0l0,-1.375l-1.554,0l-0,1.375Zm0.048,7.283l1.459,0l-0,-6.314l-1.459,0l0,6.314Z" style="fill:#fff;fill-rule:nonzero;"/><path d="M68.831,95.986c1.028,0 1.686,-0.526 2.152,-1.183l0,1.052l1.447,0l-0,-8.73l-1.447,0l0,3.397c-0.454,-0.598 -1.112,-1.113 -2.152,-1.113c-1.507,0 -2.931,1.184 -2.931,3.277l0,0.024c0,2.093 1.448,3.276 2.931,3.276Zm0.346,-1.255c-0.981,-0 -1.818,-0.801 -1.818,-2.021l0,-0.024c0,-1.244 0.825,-2.021 1.818,-2.021c0.969,0 1.83,0.801 1.83,2.021l-0,0.024c-0,1.208 -0.861,2.021 -1.83,2.021Z" style="fill:#fff;fill-rule:nonzero;"/><path d="M77.142,95.999c1.16,-0 1.985,-0.467 2.583,-1.184l-0.85,-0.754c-0.502,0.491 -1.004,0.754 -1.71,0.754c-0.932,-0 -1.662,-0.574 -1.817,-1.603l4.639,0c0.013,-0.143 0.025,-0.275 0.025,-0.407c-0,-1.817 -1.017,-3.396 -3.026,-3.396c-1.806,0 -3.085,1.483 -3.085,3.289l-0,0.024c-0,1.949 1.411,3.277 3.241,3.277Zm-1.806,-3.743c0.131,-0.981 0.753,-1.663 1.638,-1.663c0.957,0 1.507,0.73 1.602,1.663l-3.24,-0Z" style="fill:#fff;fill-rule:nonzero;"/><path d="M81.458,95.855l1.46,0l-0,-3.563c-0,-0.981 0.586,-1.567 1.423,-1.567c0.861,-0 1.351,0.562 1.351,1.542l0,3.588l1.447,0l-0,-4.03c-0,-1.459 -0.825,-2.416 -2.248,-2.416c-0.981,0 -1.567,0.515 -1.973,1.101l-0,-0.969l-1.46,0l0,6.314Z" style="fill:#fff;fill-rule:nonzero;"/><path d="M91.803,95.999c1.232,-0 1.961,-0.491 2.583,-1.184l-0.873,-0.861c-0.466,0.466 -0.957,0.777 -1.639,0.777c-1.112,-0 -1.889,-0.897 -1.889,-2.021l0,-0.024c0,-1.1 0.777,-2.009 1.83,-2.009c0.717,-0 1.184,0.335 1.626,0.789l0.909,-0.969c-0.598,-0.645 -1.339,-1.088 -2.523,-1.088c-1.901,0 -3.289,1.507 -3.289,3.301l-0,0.024c-0,1.794 1.388,3.265 3.265,3.265Z" style="fill:#fff;fill-rule:nonzero;"/><path d="M98.428,95.999c1.16,-0 1.985,-0.467 2.583,-1.184l-0.849,-0.754c-0.503,0.491 -1.005,0.754 -1.71,0.754c-0.933,-0 -1.662,-0.574 -1.818,-1.603l4.64,0c0.012,-0.143 0.024,-0.275 0.024,-0.407c-0,-1.817 -1.017,-3.396 -3.026,-3.396c-1.806,0 -3.085,1.483 -3.085,3.289l0,0.024c0,1.949 1.411,3.277 3.241,3.277Zm-1.806,-3.743c0.131,-0.981 0.753,-1.663 1.638,-1.663c0.957,0 1.507,0.73 1.603,1.663l-3.241,-0Z" style="fill:#fff;fill-rule:nonzero;"/><path d="M106.667,95.855l1.448,0l-0,-5.071l1.649,0l0,-1.195l-1.674,-0l0,-0.347c0,-0.646 0.287,-0.956 0.838,-0.956c0.31,-0 0.562,0.059 0.848,0.155l0,-1.22c-0.322,-0.096 -0.669,-0.167 -1.183,-0.167c-0.61,-0 -1.076,0.167 -1.412,0.502c-0.334,0.334 -0.514,0.861 -0.514,1.555l0,0.466l-0.801,-0l0,1.207l0.801,0l0,5.071Z" style="fill:#fff;fill-rule:nonzero;"/><path d="M113.723,95.999c1.949,-0 3.384,-1.495 3.384,-3.289l-0,-0.024c-0,-1.806 -1.423,-3.277 -3.36,-3.277c-1.937,0 -3.373,1.495 -3.373,3.301l0,0.024c0,1.794 1.424,3.265 3.349,3.265Zm0.024,-1.268c-1.124,-0 -1.925,-0.921 -1.925,-2.021l-0,-0.024c-0,-1.1 0.741,-2.009 1.901,-2.009c1.136,-0 1.937,0.921 1.937,2.033l0,0.024c0,1.088 -0.741,1.997 -1.913,1.997Z" style="fill:#fff;fill-rule:nonzero;"/><path d="M118.566,95.855l1.459,0l-0,-2.404c-0,-1.674 0.885,-2.499 2.153,-2.499l0.083,0l0,-1.531c-1.112,-0.048 -1.841,0.598 -2.236,1.543l-0,-1.423l-1.459,0l0,6.314Z" style="fill:#fff;fill-rule:nonzero;"/><path d="M126.554,95.855l1.507,0l0.861,-2.021l3.959,0l0.848,2.021l1.555,0l-3.683,-8.431l-1.363,0l-3.684,8.431Zm2.906,-3.324l1.436,-3.349l1.446,3.349l-2.882,-0Z" style="fill:#fff;fill-rule:nonzero;"/><path d="M139.171,95.999c1.232,-0 1.961,-0.491 2.583,-1.184l-0.873,-0.861c-0.466,0.466 -0.957,0.777 -1.639,0.777c-1.112,-0 -1.889,-0.897 -1.889,-2.021l0,-0.024c0,-1.1 0.777,-2.009 1.83,-2.009c0.717,-0 1.184,0.335 1.626,0.789l0.909,-0.969c-0.598,-0.645 -1.339,-1.088 -2.523,-1.088c-1.901,0 -3.289,1.507 -3.289,3.301l-0,0.024c-0,1.794 1.388,3.265 3.265,3.265Z" style="fill:#fff;fill-rule:nonzero;"/><path d="M145.198,95.963c0.55,-0 0.944,-0.12 1.303,-0.323l0,-1.184c-0.287,0.143 -0.574,0.215 -0.896,0.215c-0.491,0 -0.778,-0.227 -0.778,-0.789l0,-3.098l1.698,0l0,-1.243l-1.698,0l0,-1.734l-1.447,0l0,1.734l-0.801,0l-0,1.243l0.801,0l0,3.325c0,1.387 0.753,1.854 1.818,1.854Z" style="fill:#fff;fill-rule:nonzero;"/><path d="M148.02,88.572l1.555,0l-0,-1.375l-1.555,0l0,1.375Zm0.048,7.283l1.459,0l0,-6.314l-1.459,0l-0,6.314Z" style="fill:#fff;fill-rule:nonzero;"/><path d="M154.418,95.999c1.949,-0 3.385,-1.495 3.385,-3.289l-0,-0.024c-0,-1.806 -1.423,-3.277 -3.361,-3.277c-1.937,0 -3.372,1.495 -3.372,3.301l-0,0.024c-0,1.794 1.423,3.265 3.348,3.265Zm0.024,-1.268c-1.124,-0 -1.926,-0.921 -1.926,-2.021l0,-0.024c0,-1.1 0.742,-2.009 1.902,-2.009c1.136,-0 1.937,0.921 1.937,2.033l0,0.024c0,1.088 -0.741,1.997 -1.913,1.997Z" style="fill:#fff;fill-rule:nonzero;"/><path d="M159.264,95.855l1.455,0l-0,-3.563c-0,-0.981 0.59,-1.567 1.421,-1.567c0.865,-0 1.354,0.562 1.354,1.542l0,3.588l1.448,0l0,-4.03c0,-1.459 -0.824,-2.416 -2.246,-2.416c-0.985,0 -1.568,0.515 -1.977,1.101l-0,-0.969l-1.455,0l0,6.314Z" style="fill:#fff;fill-rule:nonzero;"/></g></g></g></svg>