<?xml version="1.0" encoding="UTF-8" standalone="no"?><!DOCTYPE svg PUBLIC "-//W3C//DTD SVG 1.1//EN" "http://www.w3.org/Graphics/SVG/1.1/DTD/svg11.dtd"><svg width="100%" height="100%" viewBox="0 0 480 480" version="1.1" xmlns="http://www.w3.org/2000/svg" xmlns:xlink="http://www.w3.org/1999/xlink" xml:space="preserve" xmlns:serif="http://www.serif.com/" style="fill-rule:evenodd;clip-rule:evenodd;stroke-linejoin:round;stroke-miterlimit:2;"><g id="Layer1"><rect x="-0" y="0" width="480" height="480" style="fill:#e5e7eb;"/></g><g id="Logo" opacity="0.1"><g><path d="M103.142,235.753l7.858,0l0,-10.723l5.971,-0c8.012,-0 14.442,-4.287 14.442,-12.552l0,-0.099c0,-7.301 -5.154,-12.354 -13.677,-12.354l-14.594,-0l-0,35.728Zm7.858,-17.716l0,-10.921l6.072,0c3.93,0 6.38,1.89 6.38,5.411l0,0.099c0,3.064 -2.297,5.411 -6.226,5.411l-6.226,0Z" style="fill-rule:nonzero;"/><path d="M130.597,235.753l8.011,0l3.265,-8.018l15.106,0l3.266,8.018l8.216,0l-15.309,-35.988l-7.246,0l-15.309,35.988Zm14.083,-14.961l4.747,-11.576l4.745,11.576l-9.492,0Z" style="fill-rule:nonzero;"/><path d="M173.972,235.753l7.757,0l0,-22.719l17.3,22.719l6.685,0l-0,-35.728l-7.757,-0l-0,21.99l-16.738,-21.99l-7.247,-0l0,35.728Z" style="fill-rule:nonzero;"/><path d="M214.288,235.753l13.93,0c11.228,0 18.984,-7.808 18.984,-17.864l-0,-0.099c-0,-10.056 -7.756,-17.765 -18.984,-17.765l-13.93,-0l-0,35.728Zm13.93,-28.637c6.431,0 10.768,4.448 10.768,10.773l0,0.099c0,6.325 -4.337,10.661 -10.768,10.661l-6.072,0l0,-21.533l6.072,0Z" style="fill-rule:nonzero;"/><path d="M254.193,235.753l27.2,0l0,-6.992l-19.392,-0l0,-7.499l16.84,-0l0,-6.993l-16.84,0l0,-7.252l19.137,0l-0,-6.992l-26.945,-0l0,35.728Z" style="fill-rule:nonzero;"/><path d="M288.385,235.753l7.705,0l0,-23.176l9.951,15.109l0.204,-0l10.053,-15.258l-0,23.325l7.808,0l-0,-35.728l-8.472,-0l-9.389,15.109l-9.389,-15.109l-8.471,-0l-0,35.728Z" style="fill-rule:nonzero;"/><rect x="333.037" y="200.025" width="7.859" height="35.722"/><path d="M366.563,236.358c6.89,0 10.972,-2.446 14.646,-6.374l-5.001,-5.053c-2.805,2.545 -5.306,4.188 -9.389,4.188c-6.124,-0 -10.359,-5.102 -10.359,-11.23l0,-0.099c0,-6.128 4.338,-11.131 10.359,-11.131c3.572,0 6.379,1.532 9.135,4.028l5.001,-5.758c-3.317,-3.273 -7.348,-5.522 -14.085,-5.522c-10.972,0 -18.627,8.327 -18.627,18.482l0,0.099c0,10.254 7.808,18.37 18.32,18.37Z" style="fill-rule:nonzero;"/><path d="M103.142,279.487l7.858,-0l0,-10.711l5.971,-0c8.012,-0 14.442,-4.287 14.442,-12.552l0,-0.111c0,-7.289 -5.154,-12.342 -13.677,-12.342l-14.594,-0l-0,35.716Zm7.858,-17.704l0,-10.921l6.072,0c3.93,0 6.38,1.89 6.38,5.411l0,0.099c0,3.064 -2.297,5.411 -6.226,5.411l-6.226,0Z" style="fill-rule:nonzero;"/><path d="M130.597,279.487l8.011,-0l3.265,-8.006l15.106,0l3.266,8.006l8.216,-0l-15.309,-35.975l-7.246,-0l-15.309,35.975Zm14.083,-14.949l4.747,-11.588l4.745,11.588l-9.492,0Z" style="fill-rule:nonzero;"/><path d="M188.414,280.105c6.89,-0 10.972,-2.459 14.646,-6.388l-5.001,-5.052c-2.807,2.557 -5.307,4.188 -9.389,4.188c-6.124,-0 -10.36,-5.103 -10.36,-11.23l-0,-0.099c-0,-6.115 4.337,-11.119 10.36,-11.119c3.572,0 6.379,1.532 9.135,4.028l5.001,-5.77c-3.317,-3.261 -7.35,-5.51 -14.085,-5.51c-10.972,0 -18.627,8.315 -18.627,18.47l0,0.111c0,10.254 7.808,18.371 18.32,18.371Z" style="fill-rule:nonzero;"/><path d="M217.656,279.487l7.858,-0l0,-28.477l10.869,0l0,-7.239l-29.598,-0l0,7.239l10.871,0l-0,28.477Z" style="fill-rule:nonzero;"/></g><g><g><path d="M75.205,258.329c0,-3.088 2.504,-5.596 5.601,-5.596c3.09,0 5.59,2.508 5.59,5.596c0,3.089 -2.5,5.591 -5.59,5.591c-3.097,-0 -5.601,-2.502 -5.601,-5.591" style="fill-rule:nonzero;"/></g><g><path d="M61.104,261.531c-0,-2.419 1.958,-4.387 4.39,-4.387c2.426,-0 4.387,1.968 4.387,4.387c0,2.426 -1.961,4.39 -4.387,4.39c-2.432,0 -4.39,-1.964 -4.39,-4.39" style="fill-rule:nonzero;"/></g><g><path d="M70.556,281.658c-0,-3.05 2.468,-5.52 5.518,-5.52c3.052,-0 5.51,2.47 5.51,5.52c0,3.038 -2.458,5.506 -5.51,5.506c-3.05,-0 -5.518,-2.468 -5.518,-5.506" style="fill-rule:nonzero;"/></g><g><path d="M77.368,303.848c0,-2.594 2.112,-4.708 4.719,-4.708c2.595,-0 4.704,2.114 4.704,4.708c0,2.61 -2.109,4.715 -4.704,4.715c-2.607,-0 -4.719,-2.105 -4.719,-4.715" style="fill-rule:nonzero;"/></g><g><path d="M90.403,189.739c-0,-3.137 2.552,-5.692 5.691,-5.692c3.137,0 5.683,2.555 5.683,5.692c0,3.141 -2.546,5.689 -5.683,5.689c-3.139,-0 -5.691,-2.548 -5.691,-5.689" style="fill-rule:nonzero;"/></g><g><path d="M92.087,171.98c-0,-2.348 1.856,-4.244 4.128,-4.244c2.28,-0 4.126,1.896 4.126,4.244c0,2.343 -1.846,4.248 -4.126,4.248c-2.272,0 -4.128,-1.905 -4.128,-4.248" style="fill-rule:nonzero;"/></g><g><path d="M130.417,171.6c0,-3.271 2.656,-5.927 5.934,-5.927c3.279,-0 5.934,2.656 5.934,5.927c0,3.274 -2.655,5.93 -5.934,5.93c-3.278,0 -5.934,-2.656 -5.934,-5.93" style="fill-rule:nonzero;"/></g><g><path d="M107.402,170.44c0,-3.008 2.443,-5.449 5.455,-5.449c3.006,0 5.441,2.441 5.441,5.449c-0,3.008 -2.435,5.447 -5.441,5.447c-3.012,-0 -5.455,-2.439 -5.455,-5.447" style="fill-rule:nonzero;"/></g><g><path d="M154.294,171.807c-0,-3.954 3.211,-7.162 7.162,-7.162c3.957,-0 7.159,3.208 7.159,7.162c0,3.953 -3.202,7.159 -7.159,7.159c-3.951,0 -7.162,-3.206 -7.162,-7.159" style="fill-rule:nonzero;"/></g><g><path d="M179.446,175.712c-0,-3.954 3.208,-7.162 7.162,-7.162c3.951,-0 7.161,3.208 7.161,7.162c0,3.957 -3.21,7.163 -7.161,7.163c-3.954,0 -7.162,-3.206 -7.162,-7.163" style="fill-rule:nonzero;"/></g><g><path d="M174.052,152.217c-0,-3.299 2.67,-5.976 5.974,-5.976c3.295,-0 5.968,2.677 5.968,5.976c-0,3.297 -2.673,5.97 -5.968,5.97c-3.304,-0 -5.974,-2.673 -5.974,-5.97" style="fill-rule:nonzero;"/></g><g><path d="M199.699,158.687c0,-2.628 2.125,-4.752 4.749,-4.752c2.624,-0 4.744,2.124 4.744,4.752c0,2.622 -2.12,4.749 -4.744,4.749c-2.624,-0 -4.749,-2.127 -4.749,-4.749" style="fill-rule:nonzero;"/></g><g><path d="M223.39,171.141c-0,-2.894 2.339,-5.24 5.233,-5.24c2.893,0 5.23,2.346 5.23,5.24c-0,2.892 -2.337,5.242 -5.23,5.242c-2.894,0 -5.233,-2.35 -5.233,-5.242" style="fill-rule:nonzero;"/></g><g><path d="M146.41,152.482c-0,-3.558 2.886,-6.436 6.449,-6.436c3.565,0 6.442,2.878 6.442,6.436c0,3.561 -2.877,6.451 -6.442,6.451c-3.563,0 -6.449,-2.89 -6.449,-6.451" style="fill-rule:nonzero;"/></g><g><path d="M125.156,154.728c0,-2.733 2.209,-4.953 4.951,-4.953c2.745,0 4.945,2.22 4.945,4.953c0,2.732 -2.2,4.949 -4.945,4.949c-2.742,0 -4.951,-2.217 -4.951,-4.949" style="fill-rule:nonzero;"/></g><g><path d="M74.542,191.893c0,-2.154 1.747,-3.906 3.903,-3.906c2.156,-0 3.902,1.752 3.902,3.906c0,2.156 -1.746,3.903 -3.902,3.903c-2.156,-0 -3.903,-1.747 -3.903,-3.903" style="fill-rule:nonzero;"/></g><g><path d="M64.222,234.62c-0,-2.683 2.185,-4.86 4.869,-4.86c2.683,-0 4.856,2.177 4.856,4.86c-0,2.683 -2.173,4.863 -4.856,4.863c-2.684,-0 -4.869,-2.18 -4.869,-4.863" style="fill-rule:nonzero;"/></g><g><path d="M74.781,210.977c0,-3.014 2.447,-5.465 5.464,-5.465c3.019,-0 5.464,2.451 5.464,5.465c-0,3.019 -2.445,5.466 -5.464,5.466c-3.017,0 -5.464,-2.447 -5.464,-5.466" style="fill-rule:nonzero;"/></g><g><path d="M62.664,217.815c0,-1.888 1.527,-3.421 3.42,-3.421c1.892,-0 3.419,1.533 3.419,3.421c0,1.888 -1.527,3.426 -3.419,3.426c-1.893,0 -3.42,-1.538 -3.42,-3.426" style="fill-rule:nonzero;"/></g></g><g><path d="M108.003,308.965l2.879,0l-0,-13.716l5.219,-0l0,-2.669l-13.318,0l0,2.669l5.22,-0l-0,13.716Z" style="fill-rule:nonzero;"/><path d="M117.108,308.965l2.856,0l0,-4.705c0,-3.277 1.732,-4.892 4.214,-4.892l0.164,0l-0,-2.996c-2.177,-0.094 -3.606,1.17 -4.378,3.019l0,-2.785l-2.856,0l-0,12.359Z" style="fill-rule:nonzero;"/><path d="M129.771,309.222c1.896,0 3.184,-0.795 4.027,-1.802l0,1.545l2.762,0l0,-7.327c0,-1.615 -0.422,-2.925 -1.334,-3.815c-0.866,-0.889 -2.248,-1.381 -4.097,-1.381c-1.966,0 -3.3,0.398 -4.681,1.007l0.773,2.223c1.123,-0.468 2.153,-0.772 3.533,-0.772c1.991,-0 3.067,0.936 3.067,2.692l-0,0.304c-0.96,-0.304 -1.942,-0.515 -3.324,-0.515c-3.019,0 -5.127,1.311 -5.127,3.98l0,0.046c0,2.481 2.084,3.815 4.401,3.815Zm0.797,-2.06c-1.358,0 -2.412,-0.678 -2.412,-1.872l0,-0.046c0,-1.288 1.077,-2.06 2.903,-2.06c1.124,-0 2.083,0.21 2.809,0.491l-0,0.843c-0,1.568 -1.428,2.644 -3.3,2.644Z" style="fill-rule:nonzero;"/><path d="M145.665,309.246c2.411,0 3.839,-0.959 5.056,-2.317l-1.708,-1.685c-0.913,0.913 -1.873,1.521 -3.207,1.521c-2.177,-0 -3.699,-1.756 -3.699,-3.956l-0,-0.046c-0,-2.154 1.522,-3.933 3.582,-3.933c1.404,-0 2.317,0.655 3.183,1.544l1.778,-1.896c-1.17,-1.263 -2.621,-2.13 -4.937,-2.13c-3.723,0 -6.438,2.95 -6.438,6.461l0,0.047c0,3.511 2.715,6.39 6.39,6.39Z" style="fill-rule:nonzero;"/><path d="M153.296,308.965l2.856,0l0,-3.534l1.756,-1.826l3.65,5.36l3.325,0l-5.08,-7.327l4.916,-5.032l-3.442,0l-5.125,5.477l0,-10.206l-2.856,0l-0,17.088Z" style="fill-rule:nonzero;"/><path d="M166.989,294.711l3.043,-0l0,-2.693l-3.043,-0l0,2.693Zm0.093,14.254l2.857,0l-0,-12.359l-2.857,0l0,12.359Z" style="fill-rule:nonzero;"/><path d="M173.613,308.965l2.857,0l-0,-6.975c-0,-1.919 1.146,-3.067 2.785,-3.067c1.685,0 2.646,1.1 2.646,3.02l-0,7.022l2.831,0l0,-7.889c0,-2.855 -1.615,-4.728 -4.401,-4.728c-1.918,0 -3.066,1.007 -3.861,2.154l-0,-1.896l-2.857,0l-0,12.359Z" style="fill-rule:nonzero;"/><path d="M193.651,312.757c2.223,-0 3.955,-0.538 5.079,-1.662c1.03,-1.03 1.568,-2.575 1.568,-4.658l0,-9.831l-2.833,0l0,1.85c-0.959,-1.147 -2.246,-2.108 -4.33,-2.108c-2.879,0 -5.617,2.154 -5.617,5.805l-0,0.048c-0,3.627 2.691,5.781 5.617,5.781c2.037,0 3.324,-0.936 4.354,-2.247l-0,0.936c-0,2.481 -1.38,3.769 -3.909,3.769c-1.685,-0 -3.067,-0.468 -4.401,-1.288l-1.052,2.13c1.591,0.961 3.487,1.475 5.524,1.475Zm0.233,-7.186c-1.943,0 -3.511,-1.381 -3.511,-3.394l0,-0.046c0,-2.038 1.544,-3.372 3.511,-3.372c1.967,0 3.629,1.358 3.629,3.372l-0,0.046c-0,2.013 -1.662,3.394 -3.629,3.394Z" style="fill-rule:nonzero;"/><path d="M211.206,308.965l2.879,0l-0,-5.711l3.604,0l4.026,5.711l3.418,0l-4.424,-6.202c2.271,-0.656 3.886,-2.271 3.886,-4.963l0,-0.047c0,-1.427 -0.492,-2.645 -1.358,-3.535c-1.053,-1.029 -2.669,-1.638 -4.727,-1.638l-7.304,0l0,16.385Zm2.879,-8.262l-0,-5.502l4.19,0c2.129,0 3.394,0.96 3.394,2.716l0,0.046c0,1.663 -1.311,2.74 -3.371,2.74l-4.213,-0Z" style="fill-rule:nonzero;"/><path d="M233.232,309.246c2.271,0 3.886,-0.913 5.057,-2.317l-1.663,-1.475c-0.982,0.96 -1.966,1.475 -3.347,1.475c-1.825,-0 -3.254,-1.123 -3.558,-3.137l9.082,0c0.024,-0.281 0.048,-0.538 0.048,-0.796c-0,-3.557 -1.991,-6.648 -5.924,-6.648c-3.533,0 -6.038,2.903 -6.038,6.437l-0,0.048c-0,3.815 2.762,6.413 6.343,6.413Zm-3.534,-7.327c0.257,-1.919 1.474,-3.253 3.207,-3.253c1.873,0 2.949,1.427 3.136,3.253l-6.343,0Z" style="fill-rule:nonzero;"/><path d="M245.943,309.2c2.574,-0 4.587,-1.288 4.587,-3.886l-0,-0.047c-0,-2.224 -2.036,-3.043 -3.838,-3.605c-1.451,-0.468 -2.786,-0.843 -2.786,-1.756l0,-0.046c0,-0.679 0.631,-1.217 1.732,-1.217c1.03,-0 2.294,0.445 3.488,1.17l1.123,-2.013c-1.311,-0.866 -2.995,-1.404 -4.541,-1.404c-2.458,-0 -4.4,1.427 -4.4,3.791l0,0.047c0,2.341 2.037,3.09 3.862,3.605c1.451,0.445 2.762,0.773 2.762,1.732l-0,0.047c-0,0.819 -0.702,1.334 -1.92,1.334c-1.263,-0 -2.691,-0.515 -4.049,-1.521l-1.264,1.919c1.545,1.24 3.488,1.85 5.244,1.85Z" style="fill-rule:nonzero;"/><path d="M259.097,309.246c2.271,0 3.885,-0.913 5.056,-2.317l-1.661,-1.475c-0.983,0.96 -1.967,1.475 -3.348,1.475c-1.826,-0 -3.254,-1.123 -3.558,-3.137l9.082,0c0.024,-0.281 0.048,-0.538 0.048,-0.796c-0,-3.557 -1.991,-6.648 -5.923,-6.648c-3.534,0 -6.039,2.903 -6.039,6.437l0,0.048c0,3.815 2.762,6.413 6.343,6.413Zm-3.534,-7.327c0.258,-1.919 1.474,-3.253 3.207,-3.253c1.873,0 2.949,1.427 3.136,3.253l-6.343,0Z" style="fill-rule:nonzero;"/><path d="M271.128,309.222c1.896,0 3.185,-0.795 4.027,-1.802l0,1.545l2.762,0l0,-7.327c0,-1.615 -0.421,-2.925 -1.334,-3.815c-0.866,-0.889 -2.248,-1.381 -4.097,-1.381c-1.965,0 -3.3,0.398 -4.682,1.007l0.773,2.223c1.124,-0.468 2.154,-0.772 3.535,-0.772c1.989,-0 3.067,0.936 3.067,2.692l-0,0.304c-0.961,-0.304 -1.944,-0.515 -3.324,-0.515c-3.02,0 -5.126,1.311 -5.126,3.98l-0,0.046c-0,2.481 2.082,3.815 4.399,3.815Zm0.797,-2.06c-1.358,0 -2.411,-0.678 -2.411,-1.872l0,-0.046c0,-1.288 1.076,-2.06 2.903,-2.06c1.123,-0 2.082,0.21 2.808,0.491l-0,0.843c-0,1.568 -1.428,2.644 -3.3,2.644Z" style="fill-rule:nonzero;"/><path d="M281.288,308.965l2.855,0l0,-4.705c0,-3.277 1.732,-4.892 4.214,-4.892l0.164,0l-0,-2.996c-2.177,-0.094 -3.605,1.17 -4.378,3.019l0,-2.785l-2.855,0l0,12.359Z" style="fill-rule:nonzero;"/><path d="M296.268,309.246c2.411,0 3.839,-0.959 5.057,-2.317l-1.71,-1.685c-0.912,0.913 -1.872,1.521 -3.207,1.521c-2.175,-0 -3.698,-1.756 -3.698,-3.956l0,-0.046c0,-2.154 1.523,-3.933 3.581,-3.933c1.406,-0 2.318,0.655 3.184,1.544l1.779,-1.896c-1.171,-1.263 -2.622,-2.13 -4.939,-2.13c-3.721,0 -6.436,2.95 -6.436,6.461l-0,0.047c-0,3.511 2.715,6.39 6.389,6.39Z" style="fill-rule:nonzero;"/><path d="M303.899,308.965l2.855,0l0,-6.975c0,-1.919 1.147,-3.067 2.786,-3.067c1.686,0 2.645,1.1 2.645,3.02l0,7.022l2.833,0l0,-7.889c0,-2.855 -1.615,-4.728 -4.401,-4.728c-1.919,0 -3.066,1.007 -3.863,2.154l0,-6.625l-2.855,0l0,17.088Z" style="fill-rule:nonzero;"/><path d="M325.785,308.965l2.88,0l-0,-6.671l8.262,-0l0,-2.622l-8.262,0l-0,-4.471l9.316,0l-0,-2.621l-12.196,0l-0,16.385Z" style="fill-rule:nonzero;"/><path d="M345.073,309.222c1.919,0 3.067,-1.006 3.862,-2.176l-0,1.919l2.855,0l0,-12.359l-2.855,0l-0,6.975c-0,1.92 -1.147,3.043 -2.786,3.043c-1.685,0 -2.645,-1.077 -2.645,-2.996l-0,-7.022l-2.832,0l0,7.864c0,2.88 1.615,4.752 4.401,4.752Z" style="fill-rule:nonzero;"/><path d="M355.301,308.965l2.857,0l-0,-6.975c-0,-1.919 1.147,-3.067 2.786,-3.067c1.684,0 2.644,1.1 2.644,3.02l-0,7.022l2.833,0l-0,-7.889c-0,-2.855 -1.616,-4.728 -4.401,-4.728c-1.92,0 -3.067,1.007 -3.862,2.154l-0,-1.896l-2.857,0l0,12.359Z" style="fill-rule:nonzero;"/><path d="M374.939,309.222c2.021,0 3.307,-1.029 4.212,-2.317l0,2.06l2.834,0l0,-17.088l-2.834,0l0,6.649c-0.892,-1.171 -2.178,-2.178 -4.212,-2.178c-2.952,0 -5.734,2.318 -5.734,6.415l-0,0.046c-0,4.096 2.834,6.413 5.734,6.413Zm0.682,-2.457c-1.915,-0 -3.556,-1.569 -3.556,-3.956l0,-0.046c0,-2.435 1.614,-3.956 3.556,-3.956c1.89,-0 3.583,1.567 3.583,3.956l-0,0.046c-0,2.365 -1.693,3.956 -3.583,3.956Z" style="fill-rule:nonzero;"/><path d="M385.594,294.711l3.044,-0l-0,-2.693l-3.044,-0l-0,2.693Zm0.092,14.254l2.86,0l0,-12.359l-2.86,0l-0,12.359Z" style="fill-rule:nonzero;"/><path d="M392.22,308.965l2.847,0l0,-6.975c0,-1.919 1.155,-3.067 2.795,-3.067c1.68,0 2.638,1.1 2.638,3.02l-0,7.022l2.834,0l-0,-7.889c-0,-2.855 -1.614,-4.728 -4.396,-4.728c-1.929,0 -3.07,1.007 -3.871,2.154l0,-1.896l-2.847,0l0,12.359Z" style="fill-rule:nonzero;"/><path d="M412.257,312.757c2.217,-0 3.949,-0.538 5.078,-1.662c1.023,-1.03 1.561,-2.575 1.561,-4.658l0,-9.831l-2.834,0l-0,1.85c-0.958,-1.147 -2.244,-2.108 -4.33,-2.108c-2.874,0 -5.616,2.154 -5.616,5.805l-0,0.048c-0,3.627 2.69,5.781 5.616,5.781c2.047,0 3.333,-0.936 4.356,-2.247l0,0.936c0,2.481 -1.378,3.769 -3.91,3.769c-1.68,-0 -3.057,-0.468 -4.396,-1.288l-1.05,2.13c1.588,0.961 3.478,1.475 5.525,1.475Zm0.223,-7.186c-1.942,0 -3.504,-1.381 -3.504,-3.394l0,-0.046c0,-2.038 1.549,-3.372 3.504,-3.372c1.968,0 3.634,1.358 3.634,3.372l0,0.046c0,2.013 -1.666,3.394 -3.634,3.394Z" style="fill-rule:nonzero;"/><path d="M107.23,333.93c1.896,-0 3.183,-0.795 4.027,-1.802l-0,1.545l2.762,-0l-0,-7.327c-0,-1.615 -0.421,-2.926 -1.334,-3.815c-0.866,-0.89 -2.248,-1.381 -4.097,-1.381c-1.966,-0 -3.3,0.397 -4.682,1.007l0.773,2.223c1.123,-0.468 2.153,-0.773 3.535,-0.773c1.989,0 3.065,0.937 3.065,2.692l0,0.305c-0.959,-0.305 -1.942,-0.515 -3.323,-0.515c-3.02,-0 -5.126,1.311 -5.126,3.979l0,0.047c0,2.481 2.083,3.815 4.4,3.815Zm0.796,-2.06c-1.358,0 -2.411,-0.678 -2.411,-1.872l-0,-0.047c-0,-1.287 1.077,-2.06 2.902,-2.06c1.125,0 2.084,0.211 2.809,0.492l0,0.843c0,1.568 -1.427,2.644 -3.3,2.644Z" style="fill-rule:nonzero;"/><path d="M117.389,333.673l2.856,-0l0,-6.975c0,-1.92 1.147,-3.067 2.786,-3.067c1.685,0 2.644,1.1 2.644,3.019l-0,7.023l2.833,-0l-0,-7.889c-0,-2.855 -1.615,-4.728 -4.401,-4.728c-1.92,-0 -3.067,1.007 -3.862,2.154l0,-1.896l-2.856,0l-0,12.359Z" style="fill-rule:nonzero;"/><path d="M137.028,333.93c2.012,-0 3.3,-1.03 4.213,-2.317l-0,2.06l2.833,-0l-0,-17.087l-2.833,-0l-0,6.648c-0.89,-1.171 -2.177,-2.178 -4.213,-2.178c-2.949,-0 -5.735,2.318 -5.735,6.414l0,0.047c0,4.096 2.832,6.413 5.735,6.413Zm0.679,-2.458c-1.919,0 -3.558,-1.568 -3.558,-3.955l-0,-0.047c-0,-2.435 1.615,-3.956 3.558,-3.956c1.896,0 3.581,1.568 3.581,3.956l0,0.047c0,2.364 -1.685,3.955 -3.581,3.955Z" style="fill-rule:nonzero;"/><path d="M154.982,333.673l12.264,-0l0,-2.575l-9.385,-0l-0,-4.377l8.215,-0l-0,-2.598l-8.215,-0l-0,-4.261l9.269,0l-0,-2.574l-12.148,0l-0,16.385Z" style="fill-rule:nonzero;"/><path d="M174.012,333.767l2.551,-0l5.055,-12.453l-2.972,0l-3.347,9.082l-3.324,-9.082l-3.042,0l5.079,12.453Z" style="fill-rule:nonzero;"/><path d="M184.076,319.418l3.043,0l-0,-2.692l-3.043,0l0,2.692Zm0.095,14.255l2.855,-0l-0,-12.359l-2.855,0l-0,12.359Z" style="fill-rule:nonzero;"/><path d="M195.828,333.93c2.013,-0 3.3,-1.03 4.213,-2.317l0,2.06l2.832,-0l-0,-17.087l-2.832,-0l0,6.648c-0.89,-1.171 -2.177,-2.178 -4.213,-2.178c-2.95,-0 -5.736,2.318 -5.736,6.414l0,0.047c0,4.096 2.833,6.413 5.736,6.413Zm0.678,-2.458c-1.92,0 -3.558,-1.568 -3.558,-3.955l-0,-0.047c-0,-2.435 1.615,-3.956 3.558,-3.956c1.896,0 3.581,1.568 3.581,3.956l-0,0.047c-0,2.364 -1.685,3.955 -3.581,3.955Z" style="fill-rule:nonzero;"/><path d="M212.096,333.954c2.27,-0 3.885,-0.913 5.055,-2.317l-1.662,-1.475c-0.983,0.959 -1.966,1.475 -3.347,1.475c-1.826,-0 -3.253,-1.124 -3.558,-3.137l9.082,-0c0.023,-0.281 0.047,-0.538 0.047,-0.796c0,-3.558 -1.989,-6.648 -5.922,-6.648c-3.535,-0 -6.039,2.902 -6.039,6.437l-0,0.047c-0,3.816 2.762,6.414 6.344,6.414Zm-3.535,-7.326c0.257,-1.92 1.475,-3.254 3.207,-3.254c1.872,-0 2.949,1.427 3.136,3.254l-6.343,-0Z" style="fill-rule:nonzero;"/><path d="M220.545,333.673l2.856,-0l0,-6.975c0,-1.92 1.147,-3.067 2.786,-3.067c1.685,0 2.645,1.1 2.645,3.019l0,7.023l2.832,-0l-0,-7.889c-0,-2.855 -1.615,-4.728 -4.401,-4.728c-1.918,-0 -3.067,1.007 -3.862,2.154l0,-1.896l-2.856,0l-0,12.359Z" style="fill-rule:nonzero;"/><path d="M240.793,333.954c2.411,-0 3.839,-0.96 5.055,-2.317l-1.708,-1.686c-0.912,0.913 -1.873,1.521 -3.207,1.521c-2.177,0 -3.698,-1.755 -3.698,-3.955l0,-0.047c0,-2.154 1.521,-3.933 3.581,-3.933c1.404,0 2.317,0.656 3.183,1.545l1.78,-1.896c-1.171,-1.264 -2.622,-2.13 -4.939,-2.13c-3.722,-0 -6.438,2.95 -6.438,6.461l0,0.046c0,3.512 2.716,6.391 6.391,6.391Z" style="fill-rule:nonzero;"/><path d="M253.761,333.954c2.27,-0 3.885,-0.913 5.055,-2.317l-1.661,-1.475c-0.984,0.959 -1.967,1.475 -3.347,1.475c-1.827,-0 -3.254,-1.124 -3.559,-3.137l9.083,-0c0.022,-0.281 0.046,-0.538 0.046,-0.796c-0,-3.558 -1.989,-6.648 -5.922,-6.648c-3.535,-0 -6.038,2.902 -6.038,6.437l-0,0.047c-0,3.816 2.762,6.414 6.343,6.414Zm-3.535,-7.326c0.257,-1.92 1.474,-3.254 3.206,-3.254c1.873,-0 2.95,1.427 3.138,3.254l-6.344,-0Z" style="fill-rule:nonzero;"/><path d="M269.888,333.673l2.833,-0l0,-9.925l3.229,-0l0,-2.341l-3.276,0l-0,-0.678c-0,-1.264 0.561,-1.873 1.639,-1.873c0.607,0 1.099,0.117 1.661,0.304l-0,-2.387c-0.631,-0.187 -1.311,-0.328 -2.317,-0.328c-1.194,0 -2.106,0.328 -2.762,0.983c-0.655,0.655 -1.007,1.686 -1.007,3.043l0,0.913l-1.568,0l0,2.364l1.568,-0l0,9.925Z" style="fill-rule:nonzero;"/><path d="M283.699,333.954c3.815,-0 6.623,-2.927 6.623,-6.437l0,-0.047c0,-3.534 -2.784,-6.414 -6.576,-6.414c-3.792,-0 -6.602,2.926 -6.602,6.461l0,0.046c0,3.512 2.786,6.391 6.555,6.391Zm0.047,-2.482c-2.201,0 -3.769,-1.801 -3.769,-3.955l0,-0.047c0,-2.154 1.452,-3.933 3.722,-3.933c2.224,0 3.792,1.803 3.792,3.98l-0,0.046c-0,2.13 -1.452,3.909 -3.745,3.909Z" style="fill-rule:nonzero;"/><path d="M293.179,333.673l2.855,-0l0,-4.706c0,-3.276 1.732,-4.891 4.213,-4.891l0.164,0l0,-2.996c-2.176,-0.094 -3.604,1.171 -4.377,3.019l0,-2.785l-2.855,0l-0,12.359Z" style="fill-rule:nonzero;"/><path d="M308.814,333.673l2.95,-0l1.685,-3.956l7.748,0l1.661,3.956l3.045,-0l-7.211,-16.503l-2.667,0l-7.211,16.503Zm5.689,-6.507l2.809,-6.554l2.832,6.554l-5.641,-0Z" style="fill-rule:nonzero;"/><path d="M333.509,333.954c2.412,-0 3.84,-0.96 5.056,-2.317l-1.709,-1.686c-0.912,0.913 -1.872,1.521 -3.206,1.521c-2.177,0 -3.698,-1.755 -3.698,-3.955l-0,-0.047c-0,-2.154 1.521,-3.933 3.581,-3.933c1.404,0 2.317,0.656 3.183,1.545l1.779,-1.896c-1.17,-1.264 -2.621,-2.13 -4.939,-2.13c-3.721,-0 -6.437,2.95 -6.437,6.461l-0,0.046c-0,3.512 2.716,6.391 6.39,6.391Z" style="fill-rule:nonzero;"/><path d="M345.307,333.883c1.077,0 1.849,-0.234 2.551,-0.631l-0,-2.318c-0.562,0.281 -1.124,0.422 -1.755,0.422c-0.96,-0 -1.522,-0.445 -1.522,-1.545l0,-6.063l3.324,-0l-0,-2.434l-3.324,0l0,-3.394l-2.832,-0l0,3.394l-1.569,0l0,2.434l1.569,-0l0,6.507c0,2.716 1.474,3.628 3.558,3.628Z" style="fill-rule:nonzero;"/><path d="M350.831,319.418l3.043,0l-0,-2.692l-3.043,0l-0,2.692Zm0.093,14.255l2.857,-0l-0,-12.359l-2.857,0l0,12.359Z" style="fill-rule:nonzero;"/><path d="M363.354,333.954c3.816,-0 6.625,-2.927 6.625,-6.437l0,-0.047c0,-3.534 -2.786,-6.414 -6.578,-6.414c-3.792,-0 -6.601,2.926 -6.601,6.461l-0,0.046c-0,3.512 2.786,6.391 6.554,6.391Zm0.047,-2.482c-2.2,0 -3.77,-1.801 -3.77,-3.955l0,-0.047c0,-2.154 1.453,-3.933 3.723,-3.933c2.224,0 3.792,1.803 3.792,3.98l0,0.046c0,2.13 -1.451,3.909 -3.745,3.909Z" style="fill-rule:nonzero;"/><path d="M372.84,333.673l2.847,-0l-0,-6.975c-0,-1.92 1.155,-3.067 2.782,-3.067c1.692,0 2.65,1.1 2.65,3.019l0,7.023l2.834,-0l0,-7.889c0,-2.855 -1.613,-4.728 -4.395,-4.728c-1.929,-0 -3.071,1.007 -3.871,2.154l-0,-1.896l-2.847,0l-0,12.359Z" style="fill-rule:nonzero;"/></g></g></svg>