<?xml version="1.0" encoding="UTF-8" standalone="no"?><!DOCTYPE svg PUBLIC "-//W3C//DTD SVG 1.1//EN" "http://www.w3.org/Graphics/SVG/1.1/DTD/svg11.dtd"><svg width="100%" height="100%" viewBox="0 0 800 800" version="1.1" xmlns="http://www.w3.org/2000/svg" xmlns:xlink="http://www.w3.org/1999/xlink" xml:space="preserve" xmlns:serif="http://www.serif.com/" style="fill-rule:evenodd;clip-rule:evenodd;stroke-linejoin:round;stroke-miterlimit:2;"><rect id="Policy-Roadmaps" serif:id="Policy Roadmaps" x="0" y="0" width="800" height="800" style="fill:none;"/><clipPath id="_clip1"><rect x="0" y="0" width="800" height="800"/></clipPath><g clip-path="url(#_clip1)"><rect x="0" y="0" width="800" height="800" style="fill:#f5f5f5;"/><path d="M700,680l-600,-0l240,-560l120,0l240,560Z" style="fill:#671000;"/><path d="M447.447,578.7l10.553,121.3l-116,0l10.553,-121.3l94.894,0Z" style="fill:#cc1b00;"/><path d="M390.616,141.2l3.584,-41.2l11.6,-0l3.584,41.2l-18.768,0Z" style="fill:#cc1b00;"/><path d="M409.819,146.2l4.568,52.5l-28.774,0l4.568,-52.5l19.638,0Z" style="fill:#991600;"/><path d="M415.257,208.7l5.176,59.5l-40.866,0l5.176,-59.5l30.514,0Z" style="fill:#cc1b00;"/><path d="M421.738,283.2l5.786,66.5l-55.048,0l5.786,-66.5l43.476,0Z" style="fill:#991600;"/><path d="M429.264,369.7l6.394,73.5l-71.316,0l6.394,-73.5l58.528,0Z" style="fill:#cc1b00;"/><path d="M437.833,468.2l7.004,80.5l-89.674,0l7.004,-80.5l75.666,0Z" style="fill:#991600;"/></g></svg>