<?xml version="1.0" encoding="UTF-8" standalone="no"?><!DOCTYPE svg PUBLIC "-//W3C//DTD SVG 1.1//EN" "http://www.w3.org/Graphics/SVG/1.1/DTD/svg11.dtd"><svg width="100%" height="100%" viewBox="0 0 800 800" version="1.1" xmlns="http://www.w3.org/2000/svg" xmlns:xlink="http://www.w3.org/1999/xlink" xml:space="preserve" xmlns:serif="http://www.serif.com/" style="fill-rule:evenodd;clip-rule:evenodd;stroke-linecap:round;stroke-linejoin:round;stroke-miterlimit:1.5;"><rect id="Study-Populations" serif:id="Study Populations" x="0" y="0" width="800" height="800" style="fill:none;"/><clipPath id="_clip1"><rect x="0" y="0" width="800" height="800"/></clipPath><g clip-path="url(#_clip1)"><rect x="0" y="0" width="800" height="800" style="fill:#f5f5f5;"/><path d="M108,227l194.667,-119" style="fill:none;stroke:#3b3da1;stroke-width:36px;"/><path d="M302.667,108l194.666,167" style="fill:none;stroke:#3b3da1;stroke-width:36px;"/><path d="M497.333,275l194.667,-120" style="fill:none;stroke:#3b3da1;stroke-width:36px;"/><circle cx="108" cy="227" r="60" style="fill:#202157;"/><circle cx="302.667" cy="108" r="60" style="fill:#202157;"/><circle cx="497.333" cy="275" r="60" style="fill:#202157;"/><circle cx="692" cy="155" r="60" style="fill:#202157;"/><path d="M108,435.5l194.667,-83" style="fill:none;stroke:#3fa3a1;stroke-width:36px;"/><path d="M302.667,352.5l194.666,95" style="fill:none;stroke:#3fa3a1;stroke-width:36px;"/><path d="M497.333,447.5l194.667,-84" style="fill:none;stroke:#3fa3a1;stroke-width:36px;"/><circle cx="108" cy="435.5" r="60" style="fill:#7acbcc;"/><circle cx="302.667" cy="352.5" r="60" style="fill:#7acbcc;"/><circle cx="497.333" cy="447.5" r="60" style="fill:#7acbcc;"/><circle cx="692" cy="363.5" r="60" style="fill:#7acbcc;"/><path d="M108,644l194.667,-119" style="fill:none;stroke:#7eaa31;stroke-width:36px;"/><path d="M302.667,525l194.666,167" style="fill:none;stroke:#7eaa31;stroke-width:36px;"/><path d="M497.333,692l194.667,-120" style="fill:none;stroke:#7eaa31;stroke-width:36px;"/><circle cx="108" cy="644" r="60" style="fill:#afd46b;"/><circle cx="302.667" cy="525" r="60" style="fill:#afd46b;"/><circle cx="497.333" cy="692" r="60" style="fill:#afd46b;"/><circle cx="692" cy="572" r="60" style="fill:#afd46b;"/></g></svg>