<?xml version="1.0" encoding="UTF-8" standalone="no"?><!DOCTYPE svg PUBLIC "-//W3C//DTD SVG 1.1//EN" "http://www.w3.org/Graphics/SVG/1.1/DTD/svg11.dtd"><svg width="100%" height="100%" viewBox="0 0 800 800" version="1.1" xmlns="http://www.w3.org/2000/svg" xmlns:xlink="http://www.w3.org/1999/xlink" xml:space="preserve" xmlns:serif="http://www.serif.com/" style="fill-rule:evenodd;clip-rule:evenodd;stroke-linejoin:round;stroke-miterlimit:2;"><rect id="Clinical-Trials" serif:id="Clinical Trials" x="0" y="0" width="800" height="800" style="fill:none;"/><g><rect x="0" y="0" width="800" height="800" style="fill:#f5f5f5;"/><path d="M119.719,434.716l271.082,0.199l92.528,254.803c-29.723,10.793 -61.105,16.303 -92.727,16.28c-149.715,-0.111 -270.993,-121.568 -270.883,-271.282Z" style="fill:#7acbcc;"/><path d="M228.864,187.442l155.323,222.172l-271.082,-0.199c0.065,-88.445 43.272,-171.296 115.759,-221.973Z" style="fill:#afd46b;"/><path d="M525.84,130.42l-135.713,234.665l-155.323,-222.172c45.594,-31.876 99.891,-48.952 155.522,-48.911c47.585,0.035 94.322,12.596 135.514,36.418Z" style="fill:#f5793b;"/><path d="M664.856,294.358l-254.729,92.727l138.913,-232.785c53.571,31.969 94.477,81.436 115.816,140.058Z" style="fill:#a8a9ad;"/><path d="M508.341,668.031l-92.528,-254.802l254.185,-94.211c11.199,30.216 16.921,62.186 16.897,94.41c-0.084,113.963 -71.435,215.704 -178.554,254.603Z" style="fill:#202157;"/></g></svg>