<?xml version="1.0" encoding="UTF-8" standalone="no"?><!DOCTYPE svg PUBLIC "-//W3C//DTD SVG 1.1//EN" "http://www.w3.org/Graphics/SVG/1.1/DTD/svg11.dtd"><svg width="100%" height="100%" viewBox="0 0 800 800" version="1.1" xmlns="http://www.w3.org/2000/svg" xmlns:xlink="http://www.w3.org/1999/xlink" xml:space="preserve" xmlns:serif="http://www.serif.com/" style="fill-rule:evenodd;clip-rule:evenodd;stroke-linejoin:round;stroke-miterlimit:2;"><rect id="Implementation---Access" serif:id="Implementation &amp; Access" x="0" y="0" width="800" height="800" style="fill:none;"/><clipPath id="_clip1"><rect x="0" y="0" width="800" height="800"/></clipPath><g clip-path="url(#_clip1)"><rect x="0" y="0" width="800" height="800" style="fill:#f5f5f5;"/><path d="M800,229l0,571l-800,0l0,-571l91,-162l76,284l140.146,-231l63.213,137l81.641,-224l125,326l114,-239l109,109Z" style="fill:#202157;"/><path d="M0,427l0,571l800,0l0,-571l-91,-162l-152,234l-64.146,-181l-65.854,82l-122,-164l-108,309l-88,-227l-73,161l-36,-52Z" style="fill:#7acbcc;"/><path d="M800,527l0,635l-800,0l0,-447l104,-262l121,189l54,-206l64.42,106.206l37.58,-68.206l49,143l47,-200.5l142,282.5l49,-282.5l96,226.5l36,-116Z" style="fill:#afd46b;"/></g></svg>