<?xml version="1.0" encoding="UTF-8" standalone="no"?><!DOCTYPE svg PUBLIC "-//W3C//DTD SVG 1.1//EN" "http://www.w3.org/Graphics/SVG/1.1/DTD/svg11.dtd"><svg width="100%" height="100%" viewBox="0 0 800 800" version="1.1" xmlns="http://www.w3.org/2000/svg" xmlns:xlink="http://www.w3.org/1999/xlink" xml:space="preserve" xmlns:serif="http://www.serif.com/" style="fill-rule:evenodd;clip-rule:evenodd;stroke-linejoin:round;stroke-miterlimit:2;"><rect id="Radar-Chart" serif:id="Radar Chart" x="0" y="0" width="800" height="800" style="fill:none;"/><clipPath id="_clip1"><rect x="0" y="0" width="800" height="800"/></clipPath><g clip-path="url(#_clip1)"><rect x="0" y="0" width="800" height="800" style="fill:#f5f5f5;"/><path d="M400,100l259.808,150l-0,300l-259.808,150l-259.808,-150l0,-300l259.808,-150Z" style="fill:#202157;"/><path d="M400,150l162,140l-25,207l-137,96l-193,-79l52,-219l141,-145Z" style="fill:#7acbcc;"/><path d="M400,222l108,100l117,205l-225,-41l-129,-2l-64,-211l193,-51Z" style="fill:#afd46b;"/><path d="M400,258l200,14l-56,194l-144,61l-84,-85l-25,-112l109,-72Z" style="fill:#f5793b;"/><path d="M400,299l134,29l-58,110l-76,199l0,-237l-154,-108l154,7Z" style="fill:#a8a9ad;"/></g></svg>